<svg width="50" height="24" viewBox="0 0 50 24" fill="none" xmlns="http://www.w3.org/2000/svg">
<path d="M11.4583 23.4582C8.26389 23.4582 5.55556 22.3471 3.33333 20.1248C1.11111 17.9026 0 15.1943 0 11.9998C0 8.80539 1.11111 6.09706 3.33333 3.87484C5.55556 1.65261 8.26389 0.541504 11.4583 0.541504C12.7431 0.541504 13.9757 0.767198 15.1562 1.21859C16.3368 1.66998 17.3958 2.31234 18.3333 3.14567L21.875 6.37484L18.75 9.18734L15.5208 6.27067C14.9653 5.78456 14.3403 5.40262 13.6458 5.12484C12.9514 4.84706 12.2222 4.70817 11.4583 4.70817C9.44444 4.70817 7.72569 5.41998 6.30208 6.84359C4.87847 8.2672 4.16667 9.98595 4.16667 11.9998C4.16667 14.0137 4.87847 15.7325 6.30208 17.1561C7.72569 18.5797 9.44444 19.2915 11.4583 19.2915C12.2222 19.2915 12.9514 19.1526 13.6458 18.8748C14.3403 18.5971 14.9653 18.2151 15.5208 17.729L31.6667 3.14567C32.6042 2.31234 33.6632 1.66998 34.8438 1.21859C36.0243 0.767198 37.2569 0.541504 38.5417 0.541504C41.7361 0.541504 44.4444 1.65261 46.6667 3.87484C48.8889 6.09706 50 8.80539 50 11.9998C50 15.1943 48.8889 17.9026 46.6667 20.1248C44.4444 22.3471 41.7361 23.4582 38.5417 23.4582C37.2569 23.4582 36.0243 23.2325 34.8438 22.7811C33.6632 22.3297 32.6042 21.6873 31.6667 20.854L28.125 17.6248L31.25 14.8123L34.4792 17.729C35.0347 18.2151 35.6597 18.5971 36.3542 18.8748C37.0486 19.1526 37.7778 19.2915 38.5417 19.2915C40.5556 19.2915 42.2743 18.5797 43.6979 17.1561C45.1215 15.7325 45.8333 14.0137 45.8333 11.9998C45.8333 9.98595 45.1215 8.2672 43.6979 6.84359C42.2743 5.41998 40.5556 4.70817 38.5417 4.70817C37.7778 4.70817 37.0486 4.84706 36.3542 5.12484C35.6597 5.40262 35.0347 5.78456 34.4792 6.27067L18.3333 20.854C17.3958 21.6873 16.3368 22.3297 15.1562 22.7811C13.9757 23.2325 12.7431 23.4582 11.4583 23.4582Z" fill="#1C1B1F"/>
</svg>
