<svg width="343" height="92" viewBox="0 0 343 92" fill="none" xmlns="http://www.w3.org/2000/svg">
<path d="M1.584 73V60.448H4.32L8.64 68.2L12.984 60.448H15.672V73H13.152V64.168L9.456 70.768H7.8L4.08 64.168V73H1.584ZM17.922 69.328C17.922 68.528 18.146 67.832 18.594 67.24C19.058 66.632 19.69 66.168 20.49 65.848C21.29 65.512 22.218 65.344 23.274 65.344C23.834 65.344 24.402 65.384 24.978 65.464C25.57 65.544 26.09 65.672 26.538 65.848V65.056C26.538 64.176 26.274 63.488 25.746 62.992C25.218 62.496 24.458 62.248 23.466 62.248C22.762 62.248 22.098 62.376 21.474 62.632C20.85 62.872 20.186 63.216 19.482 63.664L18.594 61.888C19.426 61.328 20.258 60.912 21.09 60.64C21.938 60.368 22.826 60.232 23.754 60.232C25.434 60.232 26.754 60.68 27.714 61.576C28.69 62.456 29.178 63.712 29.178 65.344V70.024C29.178 70.328 29.226 70.544 29.322 70.672C29.434 70.8 29.618 70.872 29.874 70.888V73C29.634 73.048 29.418 73.08 29.226 73.096C29.034 73.112 28.874 73.12 28.746 73.12C28.186 73.12 27.762 72.984 27.474 72.712C27.186 72.44 27.018 72.12 26.97 71.752L26.898 71.032C26.354 71.736 25.658 72.28 24.81 72.664C23.962 73.048 23.106 73.24 22.242 73.24C21.41 73.24 20.666 73.072 20.01 72.736C19.354 72.384 18.842 71.912 18.474 71.32C18.106 70.728 17.922 70.064 17.922 69.328ZM25.914 70.096C26.106 69.888 26.258 69.68 26.37 69.472C26.482 69.264 26.538 69.08 26.538 68.92V67.48C26.09 67.304 25.618 67.176 25.122 67.096C24.626 67 24.138 66.952 23.658 66.952C22.698 66.952 21.914 67.144 21.306 67.528C20.714 67.912 20.418 68.44 20.418 69.112C20.418 69.48 20.514 69.832 20.706 70.168C20.914 70.504 21.202 70.776 21.57 70.984C21.954 71.192 22.426 71.296 22.986 71.296C23.562 71.296 24.114 71.184 24.642 70.96C25.17 70.736 25.594 70.448 25.914 70.096ZM38.0689 73.24C37.0929 73.24 36.2049 73.072 35.4049 72.736C34.6209 72.384 33.9409 71.904 33.3649 71.296C32.7889 70.688 32.3409 69.992 32.0209 69.208C31.7169 68.424 31.5649 67.592 31.5649 66.712C31.5649 65.528 31.8289 64.448 32.3569 63.472C32.9009 62.496 33.6529 61.712 34.6129 61.12C35.5889 60.528 36.7409 60.232 38.0689 60.232C39.3489 60.232 40.4609 60.52 41.4049 61.096C42.3649 61.656 43.0689 62.408 43.5169 63.352L40.9489 64.168C40.6609 63.64 40.2529 63.232 39.7249 62.944C39.2129 62.64 38.6449 62.488 38.0209 62.488C37.3169 62.488 36.6769 62.672 36.1009 63.04C35.5409 63.392 35.0929 63.888 34.7569 64.528C34.4369 65.152 34.2769 65.88 34.2769 66.712C34.2769 67.512 34.4449 68.24 34.7809 68.896C35.1169 69.536 35.5649 70.048 36.1249 70.432C36.7009 70.8 37.3409 70.984 38.0449 70.984C38.4769 70.984 38.8929 70.912 39.2929 70.768C39.7089 70.608 40.0689 70.4 40.3729 70.144C40.6769 69.872 40.8929 69.576 41.0209 69.256L43.6129 70.024C43.3409 70.648 42.9329 71.2 42.3889 71.68C41.8609 72.16 41.2289 72.544 40.4929 72.832C39.7729 73.104 38.9649 73.24 38.0689 73.24ZM48.7631 73V62.776H44.6111V60.448H55.5791V62.776H51.4031V73H48.7631ZM63.2408 73.24C62.2648 73.24 61.3768 73.072 60.5768 72.736C59.7928 72.384 59.1128 71.912 58.5368 71.32C57.9608 70.712 57.5128 70.024 57.1928 69.256C56.8888 68.472 56.7368 67.64 56.7368 66.76C56.7368 65.576 57.0088 64.496 57.5527 63.52C58.0968 62.528 58.8568 61.736 59.8328 61.144C60.8088 60.536 61.9528 60.232 63.2648 60.232C64.5768 60.232 65.7048 60.536 66.6488 61.144C67.6088 61.736 68.3528 62.52 68.8808 63.496C69.4088 64.472 69.6728 65.52 69.6728 66.64C69.6728 66.832 69.6648 67.016 69.6488 67.192C69.6328 67.352 69.6168 67.488 69.6008 67.6H59.5448C59.5928 68.336 59.7928 68.984 60.1448 69.544C60.5128 70.088 60.9768 70.52 61.5368 70.84C62.0968 71.144 62.6968 71.296 63.3368 71.296C64.0408 71.296 64.7048 71.12 65.3288 70.768C65.9688 70.416 66.4008 69.952 66.6248 69.376L68.8808 70.024C68.6088 70.632 68.1928 71.184 67.6328 71.68C67.0888 72.16 66.4408 72.544 65.6888 72.832C64.9368 73.104 64.1208 73.24 63.2408 73.24ZM59.4728 65.848H67.0568C67.0088 65.128 66.8008 64.496 66.4328 63.952C66.0808 63.392 65.6248 62.96 65.0648 62.656C64.5208 62.336 63.9128 62.176 63.2408 62.176C62.5848 62.176 61.9768 62.336 61.4168 62.656C60.8728 62.96 60.4248 63.392 60.0728 63.952C59.7208 64.496 59.5208 65.128 59.4728 65.848ZM78.9542 73.24C77.9462 73.24 77.0582 73 76.2902 72.52C75.5222 72.04 74.9142 71.416 74.4662 70.648V78.112H71.8262V60.448H74.1542V62.704C74.6342 61.952 75.2582 61.352 76.0262 60.904C76.7942 60.456 77.6502 60.232 78.5942 60.232C79.4582 60.232 80.2502 60.408 80.9702 60.76C81.6902 61.096 82.3142 61.568 82.8422 62.176C83.3702 62.784 83.7782 63.48 84.0662 64.264C84.3702 65.032 84.5222 65.848 84.5222 66.712C84.5222 67.912 84.2822 69.008 83.8022 70C83.3382 70.992 82.6822 71.784 81.8342 72.376C81.0022 72.952 80.0422 73.24 78.9542 73.24ZM78.0902 70.984C78.6502 70.984 79.1542 70.864 79.6022 70.624C80.0662 70.384 80.4582 70.064 80.7782 69.664C81.1142 69.264 81.3702 68.808 81.5462 68.296C81.7222 67.784 81.8102 67.256 81.8102 66.712C81.8102 66.136 81.7142 65.592 81.5222 65.08C81.3302 64.568 81.0502 64.12 80.6822 63.736C80.3302 63.352 79.9142 63.048 79.4342 62.824C78.9702 62.6 78.4582 62.488 77.8982 62.488C77.5622 62.488 77.2102 62.552 76.8422 62.68C76.4742 62.808 76.1302 62.984 75.8102 63.208C75.4902 63.432 75.2102 63.696 74.9702 64C74.7302 64.304 74.5622 64.624 74.4662 64.96V68.248C74.6902 68.76 74.9862 69.224 75.3542 69.64C75.7222 70.04 76.1462 70.368 76.6262 70.624C77.1062 70.864 77.5942 70.984 78.0902 70.984ZM92.5845 73.24C91.6085 73.24 90.7205 73.072 89.9205 72.736C89.1365 72.384 88.4565 71.904 87.8805 71.296C87.3045 70.688 86.8565 69.992 86.5365 69.208C86.2325 68.424 86.0805 67.592 86.0805 66.712C86.0805 65.528 86.3445 64.448 86.8725 63.472C87.4165 62.496 88.1685 61.712 89.1285 61.12C90.1045 60.528 91.2565 60.232 92.5845 60.232C93.8645 60.232 94.9765 60.52 95.9205 61.096C96.8805 61.656 97.5845 62.408 98.0325 63.352L95.4645 64.168C95.1765 63.64 94.7685 63.232 94.2405 62.944C93.7285 62.64 93.1605 62.488 92.5365 62.488C91.8325 62.488 91.1925 62.672 90.6165 63.04C90.0565 63.392 89.6085 63.888 89.2725 64.528C88.9525 65.152 88.7925 65.88 88.7925 66.712C88.7925 67.512 88.9605 68.24 89.2965 68.896C89.6325 69.536 90.0805 70.048 90.6405 70.432C91.2165 70.8 91.8565 70.984 92.5605 70.984C92.9925 70.984 93.4085 70.912 93.8085 70.768C94.2245 70.608 94.5845 70.4 94.8885 70.144C95.1925 69.872 95.4085 69.576 95.5365 69.256L98.1285 70.024C97.8565 70.648 97.4485 71.2 96.9045 71.68C96.3765 72.16 95.7445 72.544 95.0085 72.832C94.2885 73.104 93.4805 73.24 92.5845 73.24ZM100.303 73V60.448H102.919V65.416H104.167L107.863 60.448H110.791L106.207 66.52L111.319 73H108.271L104.143 67.792H102.919V73H100.303ZM112.375 69.328C112.375 68.528 112.599 67.832 113.047 67.24C113.511 66.632 114.143 66.168 114.943 65.848C115.743 65.512 116.671 65.344 117.727 65.344C118.287 65.344 118.855 65.384 119.431 65.464C120.023 65.544 120.543 65.672 120.991 65.848V65.056C120.991 64.176 120.727 63.488 120.199 62.992C119.671 62.496 118.911 62.248 117.919 62.248C117.215 62.248 116.551 62.376 115.927 62.632C115.303 62.872 114.639 63.216 113.935 63.664L113.047 61.888C113.879 61.328 114.711 60.912 115.543 60.64C116.391 60.368 117.279 60.232 118.207 60.232C119.887 60.232 121.207 60.68 122.167 61.576C123.143 62.456 123.631 63.712 123.631 65.344V70.024C123.631 70.328 123.679 70.544 123.775 70.672C123.887 70.8 124.071 70.872 124.327 70.888V73C124.087 73.048 123.871 73.08 123.679 73.096C123.487 73.112 123.327 73.12 123.199 73.12C122.639 73.12 122.215 72.984 121.927 72.712C121.639 72.44 121.471 72.12 121.423 71.752L121.351 71.032C120.807 71.736 120.111 72.28 119.263 72.664C118.415 73.048 117.559 73.24 116.695 73.24C115.863 73.24 115.119 73.072 114.463 72.736C113.807 72.384 113.295 71.912 112.927 71.32C112.559 70.728 112.375 70.064 112.375 69.328ZM120.367 70.096C120.559 69.888 120.711 69.68 120.823 69.472C120.935 69.264 120.991 69.08 120.991 68.92V67.48C120.543 67.304 120.071 67.176 119.575 67.096C119.079 67 118.591 66.952 118.111 66.952C117.151 66.952 116.367 67.144 115.759 67.528C115.167 67.912 114.871 68.44 114.871 69.112C114.871 69.48 114.967 69.832 115.159 70.168C115.367 70.504 115.655 70.776 116.023 70.984C116.407 71.192 116.879 71.296 117.439 71.296C118.015 71.296 118.567 71.184 119.095 70.96C119.623 70.736 120.047 70.448 120.367 70.096ZM126.042 73L129.402 68.032C128.618 67.84 127.994 67.44 127.53 66.832C127.066 66.224 126.834 65.408 126.834 64.384C126.834 63.6 127.01 62.912 127.362 62.32C127.73 61.728 128.242 61.264 128.898 60.928C129.554 60.592 130.314 60.424 131.178 60.424H136.698V73H134.058V68.464H131.994L128.922 73H126.042ZM131.442 66.544H134.058V62.464H131.61C130.938 62.464 130.402 62.648 130.002 63.016C129.618 63.384 129.426 63.864 129.426 64.456C129.426 65.048 129.594 65.544 129.93 65.944C130.282 66.344 130.786 66.544 131.442 66.544ZM145.818 73V60.448H148.554L152.874 68.2L157.218 60.448H159.906V73H157.386V64.168L153.69 70.768H152.034L148.314 64.168V73H145.818ZM168.756 73.24C167.78 73.24 166.892 73.072 166.092 72.736C165.308 72.384 164.628 71.912 164.052 71.32C163.476 70.712 163.028 70.024 162.708 69.256C162.404 68.472 162.252 67.64 162.252 66.76C162.252 65.576 162.524 64.496 163.068 63.52C163.612 62.528 164.372 61.736 165.348 61.144C166.324 60.536 167.468 60.232 168.78 60.232C170.092 60.232 171.22 60.536 172.164 61.144C173.124 61.736 173.868 62.52 174.396 63.496C174.924 64.472 175.188 65.52 175.188 66.64C175.188 66.832 175.18 67.016 175.164 67.192C175.148 67.352 175.132 67.488 175.116 67.6H165.06C165.108 68.336 165.308 68.984 165.66 69.544C166.028 70.088 166.492 70.52 167.052 70.84C167.612 71.144 168.212 71.296 168.852 71.296C169.556 71.296 170.22 71.12 170.844 70.768C171.484 70.416 171.916 69.952 172.14 69.376L174.396 70.024C174.124 70.632 173.708 71.184 173.148 71.68C172.604 72.16 171.956 72.544 171.204 72.832C170.452 73.104 169.636 73.24 168.756 73.24ZM164.988 65.848H172.572C172.524 65.128 172.316 64.496 171.948 63.952C171.596 63.392 171.14 62.96 170.58 62.656C170.036 62.336 169.428 62.176 168.756 62.176C168.1 62.176 167.492 62.336 166.932 62.656C166.388 62.96 165.94 63.392 165.588 63.952C165.236 64.496 165.036 65.128 164.988 65.848ZM183.414 73.24C181.318 73.24 179.726 72.608 178.638 71.344C177.55 70.08 177.006 68.272 177.006 65.92C177.006 64.384 177.134 63.088 177.39 62.032C177.662 60.96 178.054 60.08 178.566 59.392C179.094 58.704 179.742 58.144 180.51 57.712C181.294 57.264 182.198 56.904 183.222 56.632L188.574 55.144L188.67 57.352L183.414 58.84C182.582 59.096 181.87 59.432 181.278 59.848C180.702 60.264 180.246 60.808 179.91 61.48C179.574 62.136 179.35 62.968 179.238 63.976C179.686 63.16 180.326 62.52 181.158 62.056C181.99 61.592 182.974 61.36 184.11 61.36C185.278 61.36 186.286 61.608 187.134 62.104C187.982 62.584 188.638 63.256 189.102 64.12C189.566 64.984 189.798 65.976 189.798 67.096C189.798 68.312 189.55 69.384 189.054 70.312C188.574 71.224 187.854 71.944 186.894 72.472C185.95 72.984 184.79 73.24 183.414 73.24ZM183.414 70.984C184.582 70.984 185.486 70.64 186.126 69.952C186.782 69.264 187.11 68.352 187.11 67.216C187.11 66.128 186.782 65.24 186.126 64.552C185.486 63.848 184.582 63.496 183.414 63.496C182.726 63.496 182.102 63.648 181.542 63.952C180.982 64.24 180.542 64.664 180.222 65.224C179.902 65.768 179.742 66.432 179.742 67.216C179.742 67.952 179.886 68.608 180.174 69.184C180.462 69.744 180.878 70.184 181.422 70.504C181.966 70.824 182.63 70.984 183.414 70.984ZM197.866 73.24C196.89 73.24 196.002 73.072 195.202 72.736C194.418 72.384 193.738 71.912 193.162 71.32C192.586 70.712 192.138 70.024 191.818 69.256C191.514 68.472 191.362 67.64 191.362 66.76C191.362 65.576 191.634 64.496 192.178 63.52C192.722 62.528 193.482 61.736 194.458 61.144C195.434 60.536 196.578 60.232 197.89 60.232C199.202 60.232 200.33 60.536 201.274 61.144C202.234 61.736 202.978 62.52 203.506 63.496C204.034 64.472 204.298 65.52 204.298 66.64C204.298 66.832 204.29 67.016 204.274 67.192C204.258 67.352 204.242 67.488 204.226 67.6H194.17C194.218 68.336 194.418 68.984 194.77 69.544C195.138 70.088 195.602 70.52 196.162 70.84C196.722 71.144 197.322 71.296 197.962 71.296C198.666 71.296 199.33 71.12 199.954 70.768C200.594 70.416 201.026 69.952 201.25 69.376L203.506 70.024C203.234 70.632 202.818 71.184 202.258 71.68C201.714 72.16 201.066 72.544 200.314 72.832C199.562 73.104 198.746 73.24 197.866 73.24ZM194.098 65.848H201.682C201.634 65.128 201.426 64.496 201.058 63.952C200.706 63.392 200.25 62.96 199.69 62.656C199.146 62.336 198.538 62.176 197.866 62.176C197.21 62.176 196.602 62.336 196.042 62.656C195.498 62.96 195.05 63.392 194.698 63.952C194.346 64.496 194.146 65.128 194.098 65.848ZM205.443 73.12V70.768C205.843 70.768 206.203 70.672 206.523 70.48C206.843 70.272 207.123 69.936 207.363 69.472C207.603 68.992 207.795 68.328 207.939 67.48C208.083 66.632 208.179 65.552 208.227 64.24L208.395 60.448H217.347V73H214.707V62.776H210.723L210.675 64.48C210.611 66.16 210.459 67.56 210.219 68.68C209.979 69.784 209.643 70.664 209.211 71.32C208.795 71.96 208.267 72.424 207.627 72.712C207.003 72.984 206.275 73.12 205.443 73.12ZM220.514 73V60.472H223.154V69.472L229.514 60.448H231.914V73H229.274V64.192L222.986 73H220.514Z" fill="#DDDDDD"/>
<path d="M32.65 47V23.7L23.55 41.05H19.7L10.6 23.7V47H3.7V11.5H11.1L21.6 31.7L32.2 11.5H39.55V47H32.65ZM46.9617 47V11.5H53.8617V47H46.9617ZM59.1184 29C59.1184 26.8333 59.5017 24.7167 60.2684 22.65C61.0684 20.55 62.2184 18.65 63.7184 16.95C65.2184 15.2167 67.0517 13.85 69.2184 12.85C71.385 11.8167 73.8517 11.3 76.6184 11.3C79.885 11.3 82.7017 12.0167 85.0684 13.45C87.4684 14.8833 89.2517 16.75 90.4184 19.05L85.1184 22.7C84.5184 21.3667 83.735 20.3167 82.7684 19.55C81.8017 18.75 80.7684 18.2 79.6684 17.9C78.5684 17.5667 77.485 17.4 76.4184 17.4C74.685 17.4 73.1684 17.75 71.8684 18.45C70.6017 19.15 69.535 20.0667 68.6684 21.2C67.8017 22.3333 67.1517 23.6 66.7184 25C66.3184 26.4 66.1184 27.8 66.1184 29.2C66.1184 30.7667 66.3684 32.2833 66.8684 33.75C67.3684 35.1833 68.0684 36.4667 68.9684 37.6C69.9017 38.7 71.0017 39.5833 72.2684 40.25C73.5684 40.8833 74.985 41.2 76.5184 41.2C77.6184 41.2 78.735 41.0167 79.8684 40.65C81.0017 40.2833 82.0517 39.7 83.0184 38.9C83.985 38.1 84.735 37.0667 85.2684 35.8L90.9184 39.05C90.2184 40.8167 89.0684 42.3167 87.4684 43.55C85.9017 44.7833 84.135 45.7167 82.1684 46.35C80.2017 46.9833 78.2517 47.3 76.3184 47.3C73.785 47.3 71.4684 46.7833 69.3684 45.75C67.2684 44.6833 65.4517 43.2833 63.9184 41.55C62.4184 39.7833 61.235 37.8167 60.3684 35.65C59.535 33.45 59.1184 31.2333 59.1184 29ZM125.396 11.5V47H118.546V31.85H102.446V47H95.5457V11.5H102.446V25.85H118.546V11.5H125.396ZM142.452 11.5H149.452L162.502 47H155.402L152.102 38.15H139.702L136.452 47H129.352L142.452 11.5ZM150.852 33.3L145.952 18.65L140.852 33.3H150.852ZM191.045 40.95V47H166.395V11.5H190.595V17.55H173.295V26.1H188.245V31.7H173.295V40.95H191.045ZM196.425 47V11.5H203.325V40.95H221.425V47H196.425Z" fill="white" fill-opacity="0.89"/>
<path fill-rule="evenodd" clip-rule="evenodd" d="M226.997 21.4815C225.081 23.7411 224.826 24.0149 223.234 25.518C221.781 26.8907 221.37 27.3226 220.47 28.4206L219.414 29.7107L218.778 31.0815L218.143 32.4522L215.898 34.8237L213.654 37.1951L213.575 36.6439C213.298 34.7053 212.023 33.2185 209.556 31.956C207.572 30.9409 206.168 30.8469 204.982 31.65C204.065 32.2704 203.526 33.5522 203.547 35.063C203.567 36.6058 204.211 37.9128 205.209 38.4375C205.556 38.6198 205.681 38.6485 206.202 38.6655C206.715 38.6821 206.866 38.6603 207.294 38.5074C208.162 38.198 209.202 37.4312 209.401 36.9547C209.751 36.1185 209.172 35.1169 208.345 35.1265C208.022 35.1302 207.85 35.2078 207.37 35.567C206.889 35.9268 206.53 36.0956 206.302 36.0696C205.784 36.0106 205.791 34.0365 206.31 33.8086C206.604 33.6797 207.145 33.731 207.73 33.9432C209.201 34.4774 210.643 35.5493 211.075 36.4298C211.37 37.0298 211.237 37.8027 210.697 38.6312L210.483 38.9591L206.856 39.0012L203.228 39.0433L203.271 42.7007L203.313 46.358L218.691 46.1796L219.863 44.5L213.654 43.2523L215 42.5L220.47 41.3488C215.259 41.4093 214.417 41.4925 214.5 41C214.441 41.3482 216.273 39.3607 217.753 37.8438L220.444 35.0858L221.3 34.7023C221.771 34.4914 222.467 34.1501 222.848 33.9438L223.54 33.569L226.243 30.9194C227.729 29.4622 229.888 27.421 231.041 26.3834L233.136 24.4969L233.586 23.4049L234.036 22.3129L232.824 20.8941C232.157 20.1138 231.533 19.3755 231.437 19.2536L231.264 19.0318L230.158 19.0446L229.053 19.0575L226.997 21.4815ZM231.731 21.14C232.249 21.7477 232.725 22.3113 232.79 22.3922C232.908 22.5388 232.907 22.5423 232.648 23.1742L232.388 23.8089L230.291 25.701C228.397 27.4091 228.007 27.798 226.274 29.7006L224.355 31.808L224.141 31.5645C224.023 31.4305 223.407 30.6736 222.772 29.8823C221.81 28.6836 221.632 28.4293 221.7 28.3581C221.746 28.3112 222.618 27.4848 223.64 26.5217C225.4 24.862 225.601 24.6479 227.497 22.4126L229.498 20.0544L230.144 20.0447L230.79 20.0349L231.731 21.14ZM222.775 30.2671C223.45 31.0753 223.999 31.7588 223.994 31.7859C223.983 31.8463 222.414 33.234 222.355 33.2347C222.332 33.2349 221.784 32.6578 221.136 31.9522C220.311 31.0542 219.972 30.6423 220.005 30.5797C220.108 30.3863 221.429 28.7951 221.486 28.7963C221.52 28.7971 222.099 29.4589 222.775 30.2671ZM221.895 33.3034C221.878 33.3236 221.434 33.5247 220.909 33.7503L219.955 34.1604L216.291 37.9273L212.627 41.6942L218.924 41.3488L220.005 41.6942L215.898 42.9468L220.47 42.5L218.694 45.1654L204.27 45.3496L204.24 42.7228L204.209 40.096L207.554 40.0526L210.899 40.0092L211.246 39.5608C211.444 39.3038 211.71 38.8441 211.869 38.4837L212.146 37.8549L212.137 37.1172C212.129 36.408 212.12 36.3628 211.918 35.9496C211.474 35.0421 210.366 34.0701 208.971 33.3645C208.074 32.9111 207.544 32.7387 206.926 32.7004C205.822 32.6319 205.226 33.1361 205.011 34.3193C204.801 35.4766 205.157 36.6629 205.824 37.0266C206.288 37.2795 207.032 37.0821 207.821 36.4966C208.256 36.1745 208.402 36.13 208.522 36.284C208.631 36.4257 208.522 36.6023 208.155 36.8748C206.726 37.9363 205.532 37.9029 204.919 36.7842C204.641 36.2777 204.522 35.7594 204.514 35.0108C204.486 32.5889 205.913 31.6207 208.238 32.4845C209.502 32.9538 210.757 33.7698 211.565 34.648C212.331 35.481 212.636 36.1648 212.65 37.0851C212.662 37.8757 212.376 38.7718 211.884 39.4843C211.747 39.6819 211.61 39.8813 211.578 39.9273C211.533 39.9926 211.615 40.01 211.948 40.0062L212.375 40.0012L215.649 36.5395L218.924 33.0778L219.393 32.0659L219.863 31.054L220.895 32.1603C221.463 32.7688 221.913 33.2832 221.895 33.3034Z" fill="#F2EBE8"/>
</svg>
