<svg width="46" height="43" viewBox="0 0 46 43" fill="none" xmlns="http://www.w3.org/2000/svg">
<path d="M22.566 40.9723C10.9013 40.9964 1.57414 32.1095 1.54912 21.3026C1.52409 10.4957 10.81 1.57044 22.4747 1.54637C34.1394 1.5223 43.4666 10.4092 43.4916 21.2161C43.5167 32.023 34.2307 40.9482 22.566 40.9723Z" fill="white" stroke="#E6A388" stroke-width="3"/>
<path d="M21.417 27.3663C22.0042 27.9509 22.9539 27.9489 23.5384 27.362L33.0622 17.7963C33.6466 17.2093 33.6444 16.2596 33.0573 15.675C32.4701 15.0904 31.5204 15.0924 30.9359 15.6794L22.4703 24.1822L13.9654 15.7144C13.3783 15.1298 12.4285 15.1318 11.8441 15.7188C11.2597 16.3058 11.2619 17.2555 11.849 17.8401L21.417 27.3663ZM20.9713 24.6095L20.9752 26.3066L23.9752 26.3004L23.9713 24.6034L20.9713 24.6095Z" fill="#E6A388"/>
</svg>
