<svg width="1330" height="125" viewBox="0 0 1330 125" fill="none" xmlns="http://www.w3.org/2000/svg">
<path d="M570.7 113V86.95H574.2L584.55 104.9L594.95 86.95H598.3V113H595.05V92.05L585.65 108.35H583.45L573.95 92.05V113H570.7ZM617.059 113.5C615.192 113.5 613.459 113.15 611.859 112.45C610.259 111.717 608.875 110.733 607.709 109.5C606.542 108.233 605.625 106.783 604.959 105.15C604.325 103.517 604.009 101.767 604.009 99.9C604.009 97.4667 604.559 95.2333 605.659 93.2C606.792 91.1667 608.342 89.55 610.309 88.35C612.275 87.1167 614.509 86.5 617.009 86.5C619.575 86.5 621.809 87.1167 623.709 88.35C625.642 89.5833 627.159 91.2167 628.259 93.25C629.359 95.25 629.909 97.45 629.909 99.85C629.909 100.117 629.909 100.383 629.909 100.65C629.909 100.883 629.892 101.067 629.859 101.2H607.559C607.725 103.067 608.242 104.733 609.109 106.2C610.009 107.633 611.159 108.783 612.559 109.65C613.992 110.483 615.542 110.9 617.209 110.9C618.909 110.9 620.509 110.467 622.009 109.6C623.542 108.733 624.609 107.6 625.209 106.2L628.159 107C627.625 108.233 626.809 109.35 625.709 110.35C624.609 111.35 623.309 112.133 621.809 112.7C620.342 113.233 618.759 113.5 617.059 113.5ZM607.459 98.75H626.709C626.575 96.85 626.059 95.1833 625.159 93.75C624.292 92.3167 623.142 91.2 621.709 90.4C620.309 89.5667 618.759 89.15 617.059 89.15C615.359 89.15 613.809 89.5667 612.409 90.4C611.009 91.2 609.859 92.3333 608.959 93.8C608.092 95.2333 607.592 96.8833 607.459 98.75ZM647.104 113.5C642.904 113.5 639.721 112.217 637.554 109.65C635.421 107.05 634.354 103.467 634.354 98.9C634.354 95.6667 634.621 92.9333 635.154 90.7C635.688 88.4667 636.471 86.6333 637.504 85.2C638.538 83.7333 639.804 82.5333 641.304 81.6C642.838 80.6667 644.588 79.9 646.554 79.3L657.504 75.7L657.804 78.65L647.254 82.1C645.254 82.7667 643.588 83.6167 642.254 84.65C640.921 85.6833 639.871 87 639.104 88.6C638.371 90.1667 637.888 92.2167 637.654 94.75C638.521 92.8167 639.854 91.3333 641.654 90.3C643.454 89.2333 645.538 88.7 647.904 88.7C650.438 88.7 652.588 89.2167 654.354 90.25C656.154 91.2833 657.521 92.7167 658.454 94.55C659.388 96.3833 659.854 98.5 659.854 100.9C659.854 103.433 659.354 105.65 658.354 107.55C657.388 109.417 655.954 110.883 654.054 111.95C652.188 112.983 649.871 113.5 647.104 113.5ZM647.104 110.5C650.071 110.5 652.354 109.65 653.954 107.95C655.588 106.217 656.404 103.917 656.404 101.05C656.404 98.25 655.604 95.9667 654.004 94.2C652.438 92.4333 650.138 91.55 647.104 91.55C645.371 91.55 643.804 91.9167 642.404 92.65C641.004 93.3833 639.888 94.45 639.054 95.85C638.254 97.25 637.854 98.9833 637.854 101.05C637.854 102.85 638.204 104.467 638.904 105.9C639.638 107.333 640.688 108.467 642.054 109.3C643.421 110.1 645.104 110.5 647.104 110.5ZM676.824 113.5C674.958 113.5 673.224 113.15 671.624 112.45C670.024 111.717 668.641 110.733 667.474 109.5C666.308 108.233 665.391 106.783 664.724 105.15C664.091 103.517 663.774 101.767 663.774 99.9C663.774 97.4667 664.324 95.2333 665.424 93.2C666.558 91.1667 668.108 89.55 670.074 88.35C672.041 87.1167 674.274 86.5 676.774 86.5C679.341 86.5 681.574 87.1167 683.474 88.35C685.408 89.5833 686.924 91.2167 688.024 93.25C689.124 95.25 689.674 97.45 689.674 99.85C689.674 100.117 689.674 100.383 689.674 100.65C689.674 100.883 689.658 101.067 689.624 101.2H667.324C667.491 103.067 668.008 104.733 668.874 106.2C669.774 107.633 670.924 108.783 672.324 109.65C673.758 110.483 675.308 110.9 676.974 110.9C678.674 110.9 680.274 110.467 681.774 109.6C683.308 108.733 684.374 107.6 684.974 106.2L687.924 107C687.391 108.233 686.574 109.35 685.474 110.35C684.374 111.35 683.074 112.133 681.574 112.7C680.108 113.233 678.524 113.5 676.824 113.5ZM667.224 98.75H686.474C686.341 96.85 685.824 95.1833 684.924 93.75C684.058 92.3167 682.908 91.2 681.474 90.4C680.074 89.5667 678.524 89.15 676.824 89.15C675.124 89.15 673.574 89.5667 672.174 90.4C670.774 91.2 669.624 92.3333 668.724 93.8C667.858 95.2333 667.358 96.8833 667.224 98.75ZM692.42 113.15V110.05C693.32 110.05 694.12 109.817 694.82 109.35C695.52 108.85 696.137 108.017 696.67 106.85C697.237 105.683 697.687 104.083 698.02 102.05C698.353 99.9833 698.57 97.3667 698.67 94.2L698.97 86.95H715.87V113H712.47V90H701.97L701.87 94.5C701.737 98.1 701.453 101.117 701.02 103.55C700.587 105.95 699.97 107.85 699.17 109.25C698.403 110.65 697.453 111.65 696.32 112.25C695.187 112.85 693.887 113.15 692.42 113.15ZM723.337 113V86.95H726.737V96.15H733.487C736.453 96.15 738.687 96.9167 740.187 98.45C741.72 99.95 742.487 101.933 742.487 104.4C742.487 106 742.153 107.45 741.487 108.75C740.82 110.05 739.837 111.083 738.537 111.85C737.27 112.617 735.67 113 733.737 113H723.337ZM726.737 110.3H733.287C734.653 110.3 735.753 110.033 736.587 109.5C737.42 108.933 738.037 108.217 738.437 107.35C738.837 106.45 739.037 105.483 739.037 104.45C739.037 103.45 738.853 102.533 738.487 101.7C738.153 100.833 737.553 100.15 736.687 99.65C735.853 99.1167 734.687 98.85 733.187 98.85H726.737V110.3ZM747.751 113V86.95H751.151V98.15H766.051V86.95H769.451V113H766.051V101.2H751.151V113H747.751ZM774.851 105.5C774.851 103.867 775.318 102.467 776.251 101.3C777.185 100.1 778.468 99.1833 780.101 98.55C781.768 97.8833 783.685 97.55 785.851 97.55C787.118 97.55 788.435 97.65 789.801 97.85C791.168 98.05 792.385 98.35 793.451 98.75V96.55C793.451 94.35 792.801 92.6 791.501 91.3C790.201 90 788.401 89.35 786.101 89.35C784.701 89.35 783.318 89.6167 781.951 90.15C780.618 90.65 779.218 91.4 777.751 92.4L776.451 90C778.151 88.8333 779.818 87.9667 781.451 87.4C783.085 86.8 784.751 86.5 786.451 86.5C789.651 86.5 792.185 87.4167 794.051 89.25C795.918 91.0833 796.851 93.6167 796.851 96.85V108.9C796.851 109.367 796.951 109.717 797.151 109.95C797.351 110.15 797.668 110.267 798.101 110.3V113C797.735 113.033 797.418 113.067 797.151 113.1C796.885 113.133 796.685 113.133 796.551 113.1C795.718 113.067 795.085 112.8 794.651 112.3C794.218 111.8 793.985 111.267 793.951 110.7L793.901 108.8C792.735 110.3 791.218 111.467 789.351 112.3C787.485 113.1 785.585 113.5 783.651 113.5C781.985 113.5 780.468 113.15 779.101 112.45C777.768 111.717 776.718 110.75 775.951 109.55C775.218 108.317 774.851 106.967 774.851 105.5ZM792.301 107.5C792.668 107.033 792.951 106.583 793.151 106.15C793.351 105.717 793.451 105.333 793.451 105V101.2C792.318 100.767 791.135 100.433 789.901 100.2C788.701 99.9667 787.485 99.85 786.251 99.85C783.818 99.85 781.851 100.333 780.351 101.3C778.851 102.267 778.101 103.583 778.101 105.25C778.101 106.217 778.351 107.133 778.851 108C779.351 108.833 780.085 109.533 781.051 110.1C782.018 110.633 783.151 110.9 784.451 110.9C786.085 110.9 787.601 110.583 789.001 109.95C790.435 109.317 791.535 108.5 792.301 107.5ZM802.247 113L809.997 102.35C808.231 102.083 806.797 101.317 805.697 100.05C804.631 98.75 804.097 96.9833 804.097 94.75C804.097 93.25 804.447 91.9167 805.147 90.75C805.847 89.5833 806.831 88.65 808.097 87.95C809.397 87.25 810.914 86.9 812.647 86.9H822.597V113H819.197V102.9H813.397L806.047 113H802.247ZM812.597 100.3H819.197V89.6H813.197C811.464 89.6 810.081 90.1 809.047 91.1C808.014 92.0667 807.497 93.3 807.497 94.8C807.497 96.3333 807.914 97.6333 808.747 98.7C809.614 99.7667 810.897 100.3 812.597 100.3ZM842.77 113V86.95H846.27L856.62 104.9L867.02 86.95H870.37V113H867.12V92.05L857.72 108.35H855.52L846.02 92.05V113H842.77ZM875.779 105.5C875.779 103.867 876.246 102.467 877.179 101.3C878.112 100.1 879.396 99.1833 881.029 98.55C882.696 97.8833 884.612 97.55 886.779 97.55C888.046 97.55 889.362 97.65 890.729 97.85C892.096 98.05 893.312 98.35 894.379 98.75V96.55C894.379 94.35 893.729 92.6 892.429 91.3C891.129 90 889.329 89.35 887.029 89.35C885.629 89.35 884.246 89.6167 882.879 90.15C881.546 90.65 880.146 91.4 878.679 92.4L877.379 90C879.079 88.8333 880.746 87.9667 882.379 87.4C884.012 86.8 885.679 86.5 887.379 86.5C890.579 86.5 893.112 87.4167 894.979 89.25C896.846 91.0833 897.779 93.6167 897.779 96.85V108.9C897.779 109.367 897.879 109.717 898.079 109.95C898.279 110.15 898.596 110.267 899.029 110.3V113C898.662 113.033 898.346 113.067 898.079 113.1C897.812 113.133 897.612 113.133 897.479 113.1C896.646 113.067 896.012 112.8 895.579 112.3C895.146 111.8 894.912 111.267 894.879 110.7L894.829 108.8C893.662 110.3 892.146 111.467 890.279 112.3C888.412 113.1 886.512 113.5 884.579 113.5C882.912 113.5 881.396 113.15 880.029 112.45C878.696 111.717 877.646 110.75 876.879 109.55C876.146 108.317 875.779 106.967 875.779 105.5ZM893.229 107.5C893.596 107.033 893.879 106.583 894.079 106.15C894.279 105.717 894.379 105.333 894.379 105V101.2C893.246 100.767 892.062 100.433 890.829 100.2C889.629 99.9667 888.412 99.85 887.179 99.85C884.746 99.85 882.779 100.333 881.279 101.3C879.779 102.267 879.029 103.583 879.029 105.25C879.029 106.217 879.279 107.133 879.779 108C880.279 108.833 881.012 109.533 881.979 110.1C882.946 110.633 884.079 110.9 885.379 110.9C887.012 110.9 888.529 110.583 889.929 109.95C891.362 109.317 892.462 108.5 893.229 107.5ZM916.425 113.5C914.525 113.5 912.775 113.15 911.175 112.45C909.608 111.717 908.225 110.717 907.025 109.45C905.858 108.183 904.942 106.733 904.275 105.1C903.642 103.467 903.325 101.733 903.325 99.9C903.325 97.4333 903.875 95.1833 904.975 93.15C906.075 91.1167 907.608 89.5 909.575 88.3C911.542 87.1 913.808 86.5 916.375 86.5C918.808 86.5 920.958 87.0667 922.825 88.2C924.692 89.3 926.075 90.8 926.975 92.7L923.675 93.75C922.942 92.4167 921.908 91.3833 920.575 90.65C919.275 89.8833 917.825 89.5 916.225 89.5C914.492 89.5 912.908 89.95 911.475 90.85C910.042 91.75 908.892 92.9833 908.025 94.55C907.192 96.1167 906.775 97.9 906.775 99.9C906.775 101.867 907.208 103.65 908.075 105.25C908.942 106.85 910.092 108.133 911.525 109.1C912.958 110.033 914.542 110.5 916.275 110.5C917.408 110.5 918.492 110.3 919.525 109.9C920.592 109.5 921.508 108.967 922.275 108.3C923.075 107.6 923.608 106.85 923.875 106.05L927.225 107.05C926.758 108.283 925.975 109.4 924.875 110.4C923.808 111.367 922.542 112.133 921.075 112.7C919.642 113.233 918.092 113.5 916.425 113.5ZM939.066 113V90H929.766V86.95H951.766V90H942.466V113H939.066ZM967.645 113.5C965.778 113.5 964.045 113.15 962.445 112.45C960.845 111.717 959.461 110.733 958.295 109.5C957.128 108.233 956.211 106.783 955.545 105.15C954.911 103.517 954.595 101.767 954.595 99.9C954.595 97.4667 955.145 95.2333 956.245 93.2C957.378 91.1667 958.928 89.55 960.895 88.35C962.861 87.1167 965.095 86.5 967.595 86.5C970.161 86.5 972.395 87.1167 974.295 88.35C976.228 89.5833 977.745 91.2167 978.845 93.25C979.945 95.25 980.495 97.45 980.495 99.85C980.495 100.117 980.495 100.383 980.495 100.65C980.495 100.883 980.478 101.067 980.445 101.2H958.145C958.311 103.067 958.828 104.733 959.695 106.2C960.595 107.633 961.745 108.783 963.145 109.65C964.578 110.483 966.128 110.9 967.795 110.9C969.495 110.9 971.095 110.467 972.595 109.6C974.128 108.733 975.195 107.6 975.795 106.2L978.745 107C978.211 108.233 977.395 109.35 976.295 110.35C975.195 111.35 973.895 112.133 972.395 112.7C970.928 113.233 969.345 113.5 967.645 113.5ZM958.045 98.75H977.295C977.161 96.85 976.645 95.1833 975.745 93.75C974.878 92.3167 973.728 91.2 972.295 90.4C970.895 89.5667 969.345 89.15 967.645 89.15C965.945 89.15 964.395 89.5667 962.995 90.4C961.595 91.2 960.445 92.3333 959.545 93.8C958.678 95.2333 958.178 96.8833 958.045 98.75ZM999.04 113.5C996.874 113.5 994.924 112.933 993.19 111.8C991.49 110.667 990.14 109.267 989.14 107.6V123.65H985.74V86.95H988.79V92C989.824 90.3667 991.207 89.05 992.94 88.05C994.674 87.0167 996.524 86.5 998.49 86.5C1000.29 86.5 1001.94 86.8833 1003.44 87.65C1004.94 88.3833 1006.24 89.3833 1007.34 90.65C1008.44 91.9167 1009.29 93.3667 1009.89 95C1010.52 96.6 1010.84 98.2667 1010.84 100C1010.84 102.433 1010.34 104.683 1009.34 106.75C1008.37 108.783 1007.01 110.417 1005.24 111.65C1003.47 112.883 1001.41 113.5 999.04 113.5ZM998.09 110.5C999.524 110.5 1000.81 110.217 1001.94 109.65C1003.07 109.05 1004.04 108.25 1004.84 107.25C1005.67 106.25 1006.31 105.133 1006.74 103.9C1007.17 102.633 1007.39 101.333 1007.39 100C1007.39 98.6 1007.14 97.2667 1006.64 96C1006.17 94.7333 1005.49 93.6167 1004.59 92.65C1003.69 91.6833 1002.66 90.9167 1001.49 90.35C1000.32 89.7833 999.057 89.5 997.69 89.5C996.824 89.5 995.924 89.6667 994.99 90C994.057 90.3333 993.157 90.8167 992.29 91.45C991.457 92.05 990.757 92.7333 990.19 93.5C989.624 94.2667 989.274 95.0833 989.14 95.95V103.95C989.674 105.183 990.39 106.3 991.29 107.3C992.19 108.267 993.224 109.05 994.39 109.65C995.59 110.217 996.824 110.5 998.09 110.5ZM1027.9 113.5C1026 113.5 1024.25 113.15 1022.65 112.45C1021.08 111.717 1019.7 110.717 1018.5 109.45C1017.33 108.183 1016.42 106.733 1015.75 105.1C1015.12 103.467 1014.8 101.733 1014.8 99.9C1014.8 97.4333 1015.35 95.1833 1016.45 93.15C1017.55 91.1167 1019.08 89.5 1021.05 88.3C1023.02 87.1 1025.28 86.5 1027.85 86.5C1030.28 86.5 1032.43 87.0667 1034.3 88.2C1036.17 89.3 1037.55 90.8 1038.45 92.7L1035.15 93.75C1034.42 92.4167 1033.38 91.3833 1032.05 90.65C1030.75 89.8833 1029.3 89.5 1027.7 89.5C1025.97 89.5 1024.38 89.95 1022.95 90.85C1021.52 91.75 1020.37 92.9833 1019.5 94.55C1018.67 96.1167 1018.25 97.9 1018.25 99.9C1018.25 101.867 1018.68 103.65 1019.55 105.25C1020.42 106.85 1021.57 108.133 1023 109.1C1024.43 110.033 1026.02 110.5 1027.75 110.5C1028.88 110.5 1029.97 110.3 1031 109.9C1032.07 109.5 1032.98 108.967 1033.75 108.3C1034.55 107.6 1035.08 106.85 1035.35 106.05L1038.7 107.05C1038.23 108.283 1037.45 109.4 1036.35 110.4C1035.28 111.367 1034.02 112.133 1032.55 112.7C1031.12 113.233 1029.57 113.5 1027.9 113.5ZM1043.99 113V86.95H1047.39V98.1H1051.29L1060.04 86.95H1063.94L1053.99 99.6L1065.19 113H1061.19L1051.29 101.25H1047.39V113H1043.99ZM1067.82 105.5C1067.82 103.867 1068.29 102.467 1069.22 101.3C1070.15 100.1 1071.44 99.1833 1073.07 98.55C1074.74 97.8833 1076.65 97.55 1078.82 97.55C1080.09 97.55 1081.4 97.65 1082.77 97.85C1084.14 98.05 1085.35 98.35 1086.42 98.75V96.55C1086.42 94.35 1085.77 92.6 1084.47 91.3C1083.17 90 1081.37 89.35 1079.07 89.35C1077.67 89.35 1076.29 89.6167 1074.92 90.15C1073.59 90.65 1072.19 91.4 1070.72 92.4L1069.42 90C1071.12 88.8333 1072.79 87.9667 1074.42 87.4C1076.05 86.8 1077.72 86.5 1079.42 86.5C1082.62 86.5 1085.15 87.4167 1087.02 89.25C1088.89 91.0833 1089.82 93.6167 1089.82 96.85V108.9C1089.82 109.367 1089.92 109.717 1090.12 109.95C1090.32 110.15 1090.64 110.267 1091.07 110.3V113C1090.7 113.033 1090.39 113.067 1090.12 113.1C1089.85 113.133 1089.65 113.133 1089.52 113.1C1088.69 113.067 1088.05 112.8 1087.62 112.3C1087.19 111.8 1086.95 111.267 1086.92 110.7L1086.87 108.8C1085.7 110.3 1084.19 111.467 1082.32 112.3C1080.45 113.1 1078.55 113.5 1076.62 113.5C1074.95 113.5 1073.44 113.15 1072.07 112.45C1070.74 111.717 1069.69 110.75 1068.92 109.55C1068.19 108.317 1067.82 106.967 1067.82 105.5ZM1085.27 107.5C1085.64 107.033 1085.92 106.583 1086.12 106.15C1086.32 105.717 1086.42 105.333 1086.42 105V101.2C1085.29 100.767 1084.1 100.433 1082.87 100.2C1081.67 99.9667 1080.45 99.85 1079.22 99.85C1076.79 99.85 1074.82 100.333 1073.32 101.3C1071.82 102.267 1071.07 103.583 1071.07 105.25C1071.07 106.217 1071.32 107.133 1071.82 108C1072.32 108.833 1073.05 109.533 1074.02 110.1C1074.99 110.633 1076.12 110.9 1077.42 110.9C1079.05 110.9 1080.57 110.583 1081.97 109.95C1083.4 109.317 1084.5 108.5 1085.27 107.5ZM1095.22 113L1102.97 102.35C1101.2 102.083 1099.77 101.317 1098.67 100.05C1097.6 98.75 1097.07 96.9833 1097.07 94.75C1097.07 93.25 1097.42 91.9167 1098.12 90.75C1098.82 89.5833 1099.8 88.65 1101.07 87.95C1102.37 87.25 1103.88 86.9 1105.62 86.9H1115.57V113H1112.17V102.9H1106.37L1099.02 113H1095.22ZM1105.57 100.3H1112.17V89.6H1106.17C1104.43 89.6 1103.05 90.1 1102.02 91.1C1100.98 92.0667 1100.47 93.3 1100.47 94.8C1100.47 96.3333 1100.88 97.6333 1101.72 98.7C1102.58 99.7667 1103.87 100.3 1105.57 100.3Z" fill="black"/>
<path d="M78.36 113V57.08L56.52 98.72H47.28L25.44 57.08V113H8.88V27.8H26.64L51.84 76.28L77.28 27.8H94.92V113H78.36ZM112.708 113V27.8H129.268V113H112.708ZM141.884 69.8C141.884 64.6 142.804 59.52 144.644 54.56C146.564 49.52 149.324 44.96 152.924 40.88C156.524 36.72 160.924 33.44 166.124 31.04C171.324 28.56 177.244 27.32 183.884 27.32C191.724 27.32 198.484 29.04 204.164 32.48C209.924 35.92 214.204 40.4 217.004 45.92L204.284 54.68C202.844 51.48 200.964 48.96 198.644 47.12C196.324 45.2 193.844 43.88 191.204 43.16C188.564 42.36 185.964 41.96 183.404 41.96C179.244 41.96 175.604 42.8 172.484 44.48C169.444 46.16 166.884 48.36 164.804 51.08C162.724 53.8 161.164 56.84 160.124 60.2C159.164 63.56 158.684 66.92 158.684 70.28C158.684 74.04 159.284 77.68 160.484 81.2C161.684 84.64 163.364 87.72 165.524 90.44C167.764 93.08 170.404 95.2 173.444 96.8C176.564 98.32 179.964 99.08 183.644 99.08C186.284 99.08 188.964 98.64 191.684 97.76C194.404 96.88 196.924 95.48 199.244 93.56C201.564 91.64 203.364 89.16 204.644 86.12L218.204 93.92C216.524 98.16 213.764 101.76 209.924 104.72C206.164 107.68 201.924 109.92 197.204 111.44C192.484 112.96 187.804 113.72 183.164 113.72C177.084 113.72 171.524 112.48 166.484 110C161.444 107.44 157.084 104.08 153.404 99.92C149.804 95.68 146.964 90.96 144.884 85.76C142.884 80.48 141.884 75.16 141.884 69.8ZM300.95 27.8V113H284.51V76.64H245.87V113H229.31V27.8H245.87V62.24H284.51V27.8H300.95ZM341.884 27.8H358.684L390.004 113H372.964L365.044 91.76H335.284L327.484 113H310.444L341.884 27.8ZM362.044 80.12L350.284 44.96L338.044 80.12H362.044ZM458.509 98.48V113H399.349V27.8H457.429V42.32H415.909V62.84H451.789V76.28H415.909V98.48H458.509Z" fill="black"/>
<mask id="path-3-inside-1_11_6" fill="white">
<path fill-rule="evenodd" clip-rule="evenodd" d="M524.731 54.7691C520.281 60.0168 519.688 60.6527 515.993 64.1436C512.618 67.3314 511.663 68.3346 509.574 70.8847L507.119 73.8807L505.643 77.0642L504.168 80.2477L498.956 85.7551L493.744 91.2627L493.56 89.9825C492.915 85.4803 489.954 82.0272 484.225 79.0952C479.618 76.7376 476.357 76.5194 473.602 78.3845C471.474 79.8254 470.222 82.8022 470.269 86.3109C470.318 89.8941 471.813 92.9294 474.131 94.148C474.936 94.5713 475.226 94.6381 476.436 94.6773C477.627 94.716 477.979 94.6653 478.973 94.3102C480.987 93.5917 483.404 91.8108 483.867 90.7043C484.679 88.7622 483.335 86.4361 481.413 86.4584C480.663 86.4671 480.265 86.6473 479.149 87.4815C478.032 88.3171 477.199 88.7091 476.669 88.6488C475.465 88.5116 475.482 83.9271 476.688 83.3977C477.37 83.0983 478.627 83.2175 479.984 83.7104C483.402 84.951 486.751 87.4404 487.754 89.4852C488.438 90.8786 488.129 92.6736 486.875 94.5979L486.379 95.3592L477.955 95.457L469.531 95.5548L469.629 104.049L469.728 112.543L505.441 112.128L541.153 111.714L541.079 105.305L541.005 98.8955L519.001 99.1509C506.898 99.2914 497 99.3542 497.005 99.2904C497.01 99.2265 499.826 96.2921 503.263 92.7692L509.512 86.3639L511.5 85.4733C512.593 84.9835 514.211 84.1909 515.095 83.7118L516.702 82.8412L522.979 76.6878C526.432 73.3036 531.446 68.5631 534.123 66.1534L538.989 61.7721L540.034 59.236L541.079 56.7L538.263 53.405C536.714 51.5928 535.265 49.8781 535.043 49.595L534.641 49.0799L532.073 49.1097L529.505 49.1395L524.731 54.7691ZM535.725 53.9759C536.928 55.3873 538.035 56.6962 538.185 56.8842C538.458 57.2246 538.456 57.2328 537.855 58.7002L537.251 60.1742L532.38 64.5685C527.983 68.5355 527.076 69.4387 523.053 73.8572L518.596 78.7514L518.098 78.186C517.824 77.8749 516.393 76.117 514.919 74.2792C512.685 71.4954 512.27 70.9048 512.43 70.7395C512.535 70.6305 514.562 68.7112 516.934 66.4746C521.021 62.6201 521.488 62.1227 525.893 56.9315L530.54 51.4547L532.04 51.4322L533.539 51.4095L535.725 53.9759ZM514.925 75.1728C516.494 77.0498 517.768 78.6372 517.757 78.7002C517.732 78.8405 514.086 82.0633 513.951 82.0649C513.898 82.0655 512.623 80.7251 511.119 79.0863C509.204 77.0009 508.416 76.0443 508.493 75.899C508.732 75.4497 511.801 71.7543 511.933 71.7571C512.01 71.7589 513.357 73.2958 514.925 75.1728ZM512.883 82.2244C512.842 82.2714 511.811 82.7384 510.592 83.2623L508.376 84.2147L499.867 92.9631L491.358 101.711L515.106 101.513L538.853 101.315L538.9 105.33L538.946 109.345L505.448 109.773L471.951 110.201L471.88 104.1L471.809 97.9997L479.577 97.8988L487.345 97.798L488.15 96.7567C488.611 96.16 489.229 95.0921 489.598 94.2552L490.24 92.7949L490.22 91.0816C490.201 89.4346 490.181 89.3298 489.712 88.37C488.681 86.2624 486.107 84.005 482.867 82.3663C480.785 81.3133 479.552 80.9131 478.118 80.8241C475.555 80.6649 474.169 81.8359 473.67 84.5837C473.182 87.2715 474.009 90.0266 475.559 90.8712C476.636 91.4586 478.364 91.0002 480.197 89.6404C481.206 88.8924 481.546 88.789 481.823 89.1467C482.078 89.4757 481.823 89.8858 480.972 90.5186C477.654 92.984 474.881 92.9063 473.456 90.3082C472.811 89.1321 472.536 87.9282 472.516 86.1897C472.45 80.5652 475.765 78.3164 481.166 80.3225C484.101 81.4126 487.014 83.3076 488.891 85.3471C490.671 87.2817 491.378 88.8698 491.411 91.0071C491.44 92.8432 490.775 94.9244 489.632 96.5791C489.314 97.0379 488.995 97.501 488.921 97.608C488.817 97.7595 489.007 97.8 489.78 97.7911L490.773 97.7795L498.377 89.74L505.982 81.7005L507.072 79.3504L508.162 77.0004L510.56 79.5697C511.878 80.9828 512.924 82.1775 512.883 82.2244Z"/>
</mask>
<path fill-rule="evenodd" clip-rule="evenodd" d="M524.731 54.7691C520.281 60.0168 519.688 60.6527 515.993 64.1436C512.618 67.3314 511.663 68.3346 509.574 70.8847L507.119 73.8807L505.643 77.0642L504.168 80.2477L498.956 85.7551L493.744 91.2627L493.56 89.9825C492.915 85.4803 489.954 82.0272 484.225 79.0952C479.618 76.7376 476.357 76.5194 473.602 78.3845C471.474 79.8254 470.222 82.8022 470.269 86.3109C470.318 89.8941 471.813 92.9294 474.131 94.148C474.936 94.5713 475.226 94.6381 476.436 94.6773C477.627 94.716 477.979 94.6653 478.973 94.3102C480.987 93.5917 483.404 91.8108 483.867 90.7043C484.679 88.7622 483.335 86.4361 481.413 86.4584C480.663 86.4671 480.265 86.6473 479.149 87.4815C478.032 88.3171 477.199 88.7091 476.669 88.6488C475.465 88.5116 475.482 83.9271 476.688 83.3977C477.37 83.0983 478.627 83.2175 479.984 83.7104C483.402 84.951 486.751 87.4404 487.754 89.4852C488.438 90.8786 488.129 92.6736 486.875 94.5979L486.379 95.3592L477.955 95.457L469.531 95.5548L469.629 104.049L469.728 112.543L505.441 112.128L541.153 111.714L541.079 105.305L541.005 98.8955L519.001 99.1509C506.898 99.2914 497 99.3542 497.005 99.2904C497.01 99.2265 499.826 96.2921 503.263 92.7692L509.512 86.3639L511.5 85.4733C512.593 84.9835 514.211 84.1909 515.095 83.7118L516.702 82.8412L522.979 76.6878C526.432 73.3036 531.446 68.5631 534.123 66.1534L538.989 61.7721L540.034 59.236L541.079 56.7L538.263 53.405C536.714 51.5928 535.265 49.8781 535.043 49.595L534.641 49.0799L532.073 49.1097L529.505 49.1395L524.731 54.7691ZM535.725 53.9759C536.928 55.3873 538.035 56.6962 538.185 56.8842C538.458 57.2246 538.456 57.2328 537.855 58.7002L537.251 60.1742L532.38 64.5685C527.983 68.5355 527.076 69.4387 523.053 73.8572L518.596 78.7514L518.098 78.186C517.824 77.8749 516.393 76.117 514.919 74.2792C512.685 71.4954 512.27 70.9048 512.43 70.7395C512.535 70.6305 514.562 68.7112 516.934 66.4746C521.021 62.6201 521.488 62.1227 525.893 56.9315L530.54 51.4547L532.04 51.4322L533.539 51.4095L535.725 53.9759ZM514.925 75.1728C516.494 77.0498 517.768 78.6372 517.757 78.7002C517.732 78.8405 514.086 82.0633 513.951 82.0649C513.898 82.0655 512.623 80.7251 511.119 79.0863C509.204 77.0009 508.416 76.0443 508.493 75.899C508.732 75.4497 511.801 71.7543 511.933 71.7571C512.01 71.7589 513.357 73.2958 514.925 75.1728ZM512.883 82.2244C512.842 82.2714 511.811 82.7384 510.592 83.2623L508.376 84.2147L499.867 92.9631L491.358 101.711L515.106 101.513L538.853 101.315L538.9 105.33L538.946 109.345L505.448 109.773L471.951 110.201L471.88 104.1L471.809 97.9997L479.577 97.8988L487.345 97.798L488.15 96.7567C488.611 96.16 489.229 95.0921 489.598 94.2552L490.24 92.7949L490.22 91.0816C490.201 89.4346 490.181 89.3298 489.712 88.37C488.681 86.2624 486.107 84.005 482.867 82.3663C480.785 81.3133 479.552 80.9131 478.118 80.8241C475.555 80.6649 474.169 81.8359 473.67 84.5837C473.182 87.2715 474.009 90.0266 475.559 90.8712C476.636 91.4586 478.364 91.0002 480.197 89.6404C481.206 88.8924 481.546 88.789 481.823 89.1467C482.078 89.4757 481.823 89.8858 480.972 90.5186C477.654 92.984 474.881 92.9063 473.456 90.3082C472.811 89.1321 472.536 87.9282 472.516 86.1897C472.45 80.5652 475.765 78.3164 481.166 80.3225C484.101 81.4126 487.014 83.3076 488.891 85.3471C490.671 87.2817 491.378 88.8698 491.411 91.0071C491.44 92.8432 490.775 94.9244 489.632 96.5791C489.314 97.0379 488.995 97.501 488.921 97.608C488.817 97.7595 489.007 97.8 489.78 97.7911L490.773 97.7795L498.377 89.74L505.982 81.7005L507.072 79.3504L508.162 77.0004L510.56 79.5697C511.878 80.9828 512.924 82.1775 512.883 82.2244Z" fill="black" stroke="black" stroke-width="2" mask="url(#path-3-inside-1_11_6)"/>
<rect x="469" y="28" width="16" height="41" fill="black"/>
</svg>
