<svg width="282" height="105" viewBox="0 0 282 105" fill="none" xmlns="http://www.w3.org/2000/svg">
<path d="M27.426 39V19.428L19.782 34.002H16.548L8.904 19.428V39H3.108V9.18H9.324L18.144 26.148L27.048 9.18H33.222V39H27.426ZM39.4478 39V9.18H45.2438V39H39.4478ZM49.6594 23.88C49.6594 22.06 49.9814 20.282 50.6254 18.546C51.2974 16.782 52.2634 15.186 53.5234 13.758C54.7834 12.302 56.3234 11.154 58.1434 10.314C59.9634 9.446 62.0354 9.012 64.3594 9.012C67.1034 9.012 69.4694 9.614 71.4574 10.818C73.4734 12.022 74.9714 13.59 75.9514 15.522L71.4994 18.588C70.9954 17.468 70.3374 16.586 69.5254 15.942C68.7134 15.27 67.8454 14.808 66.9214 14.556C65.9974 14.276 65.0874 14.136 64.1914 14.136C62.7354 14.136 61.4614 14.43 60.3694 15.018C59.3054 15.606 58.4094 16.376 57.6814 17.328C56.9534 18.28 56.4074 19.344 56.0434 20.52C55.7074 21.696 55.5394 22.872 55.5394 24.048C55.5394 25.364 55.7494 26.638 56.1694 27.87C56.5894 29.074 57.1774 30.152 57.9334 31.104C58.7174 32.028 59.6414 32.77 60.7054 33.33C61.7974 33.862 62.9874 34.128 64.2754 34.128C65.1994 34.128 66.1374 33.974 67.0894 33.666C68.0414 33.358 68.9234 32.868 69.7354 32.196C70.5474 31.524 71.1774 30.656 71.6254 29.592L76.3714 32.322C75.7834 33.806 74.8174 35.066 73.4734 36.102C72.1574 37.138 70.6734 37.922 69.0214 38.454C67.3694 38.986 65.7314 39.252 64.1074 39.252C61.9794 39.252 60.0334 38.818 58.2694 37.95C56.5054 37.054 54.9794 35.878 53.6914 34.422C52.4314 32.938 51.4374 31.286 50.7094 29.466C50.0094 27.618 49.6594 25.756 49.6594 23.88ZM105.332 9.18V39H99.5784V26.274H86.0544V39H80.2584V9.18H86.0544V21.234H99.5784V9.18H105.332ZM119.659 9.18H125.539L136.501 39H130.537L127.765 31.566H117.349L114.619 39H108.655L119.659 9.18ZM126.715 27.492L122.599 15.186L118.315 27.492H126.715ZM160.478 33.918V39H139.772V9.18H160.1V14.262H145.568V21.444H158.126V26.148H145.568V33.918H160.478Z" fill="black"/>
<path d="M2.776 68V55.496H4.456L9.424 64.112L14.416 55.496H16.024V68H14.464V57.944L9.952 65.768H8.896L4.336 57.944V68H2.776ZM25.0281 68.24C24.1321 68.24 23.3001 68.072 22.5321 67.736C21.7641 67.384 21.1001 66.912 20.5401 66.32C19.9801 65.712 19.5401 65.016 19.2201 64.232C18.9161 63.448 18.7641 62.608 18.7641 61.712C18.7641 60.544 19.0281 59.472 19.5561 58.496C20.1001 57.52 20.8441 56.744 21.7881 56.168C22.7321 55.576 23.8041 55.28 25.0041 55.28C26.2361 55.28 27.3081 55.576 28.2201 56.168C29.1481 56.76 29.8761 57.544 30.4041 58.52C30.9321 59.48 31.1961 60.536 31.1961 61.688C31.1961 61.816 31.1961 61.944 31.1961 62.072C31.1961 62.184 31.1881 62.272 31.1721 62.336H20.4681C20.5481 63.232 20.7961 64.032 21.2121 64.736C21.6441 65.424 22.1961 65.976 22.8681 66.392C23.5561 66.792 24.3001 66.992 25.1001 66.992C25.9161 66.992 26.6841 66.784 27.4041 66.368C28.1401 65.952 28.6521 65.408 28.9401 64.736L30.3561 65.12C30.1001 65.712 29.7081 66.248 29.1801 66.728C28.6521 67.208 28.0281 67.584 27.3081 67.856C26.6041 68.112 25.8441 68.24 25.0281 68.24ZM20.4201 61.16H29.6601C29.5961 60.248 29.3481 59.448 28.9161 58.76C28.5001 58.072 27.9481 57.536 27.2601 57.152C26.5881 56.752 25.8441 56.552 25.0281 56.552C24.2121 56.552 23.4681 56.752 22.7961 57.152C22.1241 57.536 21.5721 58.08 21.1401 58.784C20.7241 59.472 20.4841 60.264 20.4201 61.16ZM39.4501 68.24C37.4341 68.24 35.9061 67.624 34.8661 66.392C33.8421 65.144 33.3301 63.424 33.3301 61.232C33.3301 59.68 33.4581 58.368 33.7141 57.296C33.9701 56.224 34.3461 55.344 34.8421 54.656C35.3381 53.952 35.9461 53.376 36.6661 52.928C37.4021 52.48 38.2421 52.112 39.1861 51.824L44.4421 50.096L44.5861 51.512L39.5221 53.168C38.5621 53.488 37.7621 53.896 37.1221 54.392C36.4821 54.888 35.9781 55.52 35.6101 56.288C35.2581 57.04 35.0261 58.024 34.9141 59.24C35.3301 58.312 35.9701 57.6 36.8341 57.104C37.6981 56.592 38.6981 56.336 39.8341 56.336C41.0501 56.336 42.0821 56.584 42.9301 57.08C43.7941 57.576 44.4501 58.264 44.8981 59.144C45.3461 60.024 45.5701 61.04 45.5701 62.192C45.5701 63.408 45.3301 64.472 44.8501 65.384C44.3861 66.28 43.6981 66.984 42.7861 67.496C41.8901 67.992 40.7781 68.24 39.4501 68.24ZM39.4501 66.8C40.8741 66.8 41.9701 66.392 42.7381 65.576C43.5221 64.744 43.9141 63.64 43.9141 62.264C43.9141 60.92 43.5301 59.824 42.7621 58.976C42.0101 58.128 40.9061 57.704 39.4501 57.704C38.6181 57.704 37.8661 57.88 37.1941 58.232C36.5221 58.584 35.9861 59.096 35.5861 59.768C35.2021 60.44 35.0101 61.272 35.0101 62.264C35.0101 63.128 35.1781 63.904 35.5141 64.592C35.8661 65.28 36.3701 65.824 37.0261 66.224C37.6821 66.608 38.4901 66.8 39.4501 66.8ZM53.7156 68.24C52.8196 68.24 51.9876 68.072 51.2196 67.736C50.4516 67.384 49.7876 66.912 49.2276 66.32C48.6676 65.712 48.2276 65.016 47.9076 64.232C47.6036 63.448 47.4516 62.608 47.4516 61.712C47.4516 60.544 47.7156 59.472 48.2436 58.496C48.7876 57.52 49.5316 56.744 50.4756 56.168C51.4196 55.576 52.4916 55.28 53.6916 55.28C54.9236 55.28 55.9956 55.576 56.9076 56.168C57.8356 56.76 58.5636 57.544 59.0916 58.52C59.6196 59.48 59.8836 60.536 59.8836 61.688C59.8836 61.816 59.8836 61.944 59.8836 62.072C59.8836 62.184 59.8756 62.272 59.8596 62.336H49.1556C49.2356 63.232 49.4836 64.032 49.8996 64.736C50.3316 65.424 50.8836 65.976 51.5556 66.392C52.2436 66.792 52.9876 66.992 53.7876 66.992C54.6036 66.992 55.3716 66.784 56.0916 66.368C56.8276 65.952 57.3396 65.408 57.6276 64.736L59.0436 65.12C58.7876 65.712 58.3956 66.248 57.8676 66.728C57.3396 67.208 56.7156 67.584 55.9956 67.856C55.2916 68.112 54.5316 68.24 53.7156 68.24ZM49.1076 61.16H58.3476C58.2836 60.248 58.0356 59.448 57.6036 58.76C57.1876 58.072 56.6356 57.536 55.9476 57.152C55.2756 56.752 54.5316 56.552 53.7156 56.552C52.8996 56.552 52.1556 56.752 51.4836 57.152C50.8116 57.536 50.2596 58.08 49.8276 58.784C49.4116 59.472 49.1716 60.264 49.1076 61.16ZM61.2016 68.072V66.584C61.6336 66.584 62.0176 66.472 62.3536 66.248C62.6896 66.008 62.9856 65.608 63.2416 65.048C63.5136 64.488 63.7296 63.72 63.8896 62.744C64.0496 61.752 64.1536 60.496 64.2016 58.976L64.3456 55.496H72.4576V68H70.8256V56.96H65.7856L65.7376 59.12C65.6736 60.848 65.5376 62.296 65.3296 63.464C65.1216 64.616 64.8256 65.528 64.4416 66.2C64.0736 66.872 63.6176 67.352 63.0736 67.64C62.5296 67.928 61.9056 68.072 61.2016 68.072ZM76.0416 68V55.496H77.6736V59.912H80.9136C82.3376 59.912 83.4096 60.28 84.1296 61.016C84.8656 61.736 85.2336 62.688 85.2336 63.872C85.2336 64.64 85.0736 65.336 84.7536 65.96C84.4336 66.584 83.9616 67.08 83.3376 67.448C82.7296 67.816 81.9616 68 81.0336 68H76.0416ZM77.6736 66.704H80.8176C81.4736 66.704 82.0016 66.576 82.4016 66.32C82.8016 66.048 83.0976 65.704 83.2896 65.288C83.4816 64.856 83.5776 64.392 83.5776 63.896C83.5776 63.416 83.4896 62.976 83.3136 62.576C83.1536 62.16 82.8656 61.832 82.4496 61.592C82.0496 61.336 81.4896 61.208 80.7696 61.208H77.6736V66.704ZM87.7604 68V55.496H89.3924V60.872H96.5444V55.496H98.1764V68H96.5444V62.336H89.3924V68H87.7604ZM100.769 64.4C100.769 63.616 100.993 62.944 101.441 62.384C101.889 61.808 102.505 61.368 103.289 61.064C104.089 60.744 105.009 60.584 106.049 60.584C106.657 60.584 107.289 60.632 107.945 60.728C108.601 60.824 109.185 60.968 109.697 61.16V60.104C109.697 59.048 109.385 58.208 108.761 57.584C108.137 56.96 107.273 56.648 106.169 56.648C105.497 56.648 104.833 56.776 104.177 57.032C103.537 57.272 102.865 57.632 102.161 58.112L101.537 56.96C102.353 56.4 103.153 55.984 103.937 55.712C104.721 55.424 105.521 55.28 106.337 55.28C107.873 55.28 109.089 55.72 109.985 56.6C110.881 57.48 111.329 58.696 111.329 60.248V66.032C111.329 66.256 111.377 66.424 111.473 66.536C111.569 66.632 111.721 66.688 111.929 66.704V68C111.753 68.016 111.601 68.032 111.473 68.048C111.345 68.064 111.249 68.064 111.185 68.048C110.785 68.032 110.481 67.904 110.273 67.664C110.065 67.424 109.953 67.168 109.937 66.896L109.913 65.984C109.353 66.704 108.625 67.264 107.729 67.664C106.833 68.048 105.921 68.24 104.993 68.24C104.193 68.24 103.465 68.072 102.809 67.736C102.169 67.384 101.665 66.92 101.297 66.344C100.945 65.752 100.769 65.104 100.769 64.4ZM109.145 65.36C109.321 65.136 109.457 64.92 109.553 64.712C109.649 64.504 109.697 64.32 109.697 64.16V62.336C109.153 62.128 108.585 61.968 107.993 61.856C107.417 61.744 106.833 61.688 106.241 61.688C105.073 61.688 104.129 61.92 103.409 62.384C102.689 62.848 102.329 63.48 102.329 64.28C102.329 64.744 102.449 65.184 102.689 65.6C102.929 66 103.281 66.336 103.745 66.608C104.209 66.864 104.753 66.992 105.377 66.992C106.161 66.992 106.889 66.84 107.561 66.536C108.249 66.232 108.777 65.84 109.145 65.36ZM113.919 68L117.639 62.888C116.791 62.76 116.103 62.392 115.575 61.784C115.063 61.16 114.807 60.312 114.807 59.24C114.807 58.52 114.975 57.88 115.311 57.32C115.647 56.76 116.119 56.312 116.727 55.976C117.351 55.64 118.079 55.472 118.911 55.472H123.687V68H122.055V63.152H119.271L115.743 68H113.919ZM118.887 61.904H122.055V56.768H119.175C118.343 56.768 117.679 57.008 117.183 57.488C116.687 57.952 116.439 58.544 116.439 59.264C116.439 60 116.639 60.624 117.039 61.136C117.455 61.648 118.071 61.904 118.887 61.904ZM133.37 68V55.496H135.05L140.018 64.112L145.01 55.496H146.618V68H145.058V57.944L140.546 65.768H139.49L134.93 57.944V68H133.37ZM149.214 64.4C149.214 63.616 149.438 62.944 149.886 62.384C150.334 61.808 150.95 61.368 151.734 61.064C152.534 60.744 153.454 60.584 154.494 60.584C155.102 60.584 155.734 60.632 156.39 60.728C157.046 60.824 157.63 60.968 158.142 61.16V60.104C158.142 59.048 157.83 58.208 157.206 57.584C156.582 56.96 155.718 56.648 154.614 56.648C153.942 56.648 153.278 56.776 152.622 57.032C151.982 57.272 151.31 57.632 150.606 58.112L149.982 56.96C150.798 56.4 151.598 55.984 152.382 55.712C153.166 55.424 153.966 55.28 154.782 55.28C156.318 55.28 157.534 55.72 158.43 56.6C159.326 57.48 159.774 58.696 159.774 60.248V66.032C159.774 66.256 159.822 66.424 159.918 66.536C160.014 66.632 160.166 66.688 160.374 66.704V68C160.198 68.016 160.046 68.032 159.918 68.048C159.79 68.064 159.694 68.064 159.63 68.048C159.23 68.032 158.926 67.904 158.718 67.664C158.51 67.424 158.398 67.168 158.382 66.896L158.358 65.984C157.798 66.704 157.07 67.264 156.174 67.664C155.278 68.048 154.366 68.24 153.438 68.24C152.638 68.24 151.91 68.072 151.254 67.736C150.614 67.384 150.11 66.92 149.742 66.344C149.39 65.752 149.214 65.104 149.214 64.4ZM157.59 65.36C157.766 65.136 157.902 64.92 157.998 64.712C158.094 64.504 158.142 64.32 158.142 64.16V62.336C157.598 62.128 157.03 61.968 156.438 61.856C155.862 61.744 155.278 61.688 154.686 61.688C153.518 61.688 152.574 61.92 151.854 62.384C151.134 62.848 150.774 63.48 150.774 64.28C150.774 64.744 150.894 65.184 151.134 65.6C151.374 66 151.726 66.336 152.19 66.608C152.654 66.864 153.198 66.992 153.822 66.992C154.606 66.992 155.334 66.84 156.006 66.536C156.694 66.232 157.222 65.84 157.59 65.36ZM168.724 68.24C167.812 68.24 166.972 68.072 166.204 67.736C165.452 67.384 164.788 66.904 164.212 66.296C163.652 65.688 163.212 64.992 162.892 64.208C162.588 63.424 162.436 62.592 162.436 61.712C162.436 60.528 162.7 59.448 163.228 58.472C163.756 57.496 164.492 56.72 165.436 56.144C166.38 55.568 167.468 55.28 168.7 55.28C169.868 55.28 170.9 55.552 171.796 56.096C172.692 56.624 173.356 57.344 173.788 58.256L172.204 58.76C171.852 58.12 171.356 57.624 170.716 57.272C170.092 56.904 169.396 56.72 168.628 56.72C167.796 56.72 167.036 56.936 166.348 57.368C165.66 57.8 165.108 58.392 164.692 59.144C164.292 59.896 164.092 60.752 164.092 61.712C164.092 62.656 164.3 63.512 164.716 64.28C165.132 65.048 165.684 65.664 166.372 66.128C167.06 66.576 167.82 66.8 168.652 66.8C169.196 66.8 169.716 66.704 170.212 66.512C170.724 66.32 171.164 66.064 171.532 65.744C171.916 65.408 172.172 65.048 172.3 64.664L173.908 65.144C173.684 65.736 173.308 66.272 172.78 66.752C172.268 67.216 171.66 67.584 170.956 67.856C170.268 68.112 169.524 68.24 168.724 68.24ZM179.592 68V56.96H175.128V55.496H185.688V56.96H181.224V68H179.592ZM193.309 68.24C192.413 68.24 191.581 68.072 190.813 67.736C190.045 67.384 189.381 66.912 188.821 66.32C188.261 65.712 187.821 65.016 187.501 64.232C187.197 63.448 187.045 62.608 187.045 61.712C187.045 60.544 187.309 59.472 187.837 58.496C188.381 57.52 189.125 56.744 190.069 56.168C191.013 55.576 192.085 55.28 193.285 55.28C194.517 55.28 195.589 55.576 196.501 56.168C197.429 56.76 198.157 57.544 198.685 58.52C199.213 59.48 199.477 60.536 199.477 61.688C199.477 61.816 199.477 61.944 199.477 62.072C199.477 62.184 199.469 62.272 199.453 62.336H188.749C188.829 63.232 189.077 64.032 189.493 64.736C189.925 65.424 190.477 65.976 191.149 66.392C191.837 66.792 192.581 66.992 193.381 66.992C194.197 66.992 194.965 66.784 195.685 66.368C196.421 65.952 196.933 65.408 197.221 64.736L198.637 65.12C198.381 65.712 197.989 66.248 197.461 66.728C196.933 67.208 196.309 67.584 195.589 67.856C194.885 68.112 194.125 68.24 193.309 68.24ZM188.701 61.16H197.941C197.877 60.248 197.629 59.448 197.197 58.76C196.781 58.072 196.229 57.536 195.541 57.152C194.869 56.752 194.125 56.552 193.309 56.552C192.493 56.552 191.749 56.752 191.077 57.152C190.405 57.536 189.853 58.08 189.421 58.784C189.005 59.472 188.765 60.264 188.701 61.16ZM208.379 68.24C207.339 68.24 206.403 67.968 205.571 67.424C204.755 66.88 204.107 66.208 203.627 65.408V73.112H201.995V55.496H203.459V57.92C203.955 57.136 204.619 56.504 205.451 56.024C206.283 55.528 207.171 55.28 208.115 55.28C208.979 55.28 209.771 55.464 210.491 55.832C211.211 56.184 211.835 56.664 212.363 57.272C212.891 57.88 213.299 58.576 213.587 59.36C213.891 60.128 214.043 60.928 214.043 61.76C214.043 62.928 213.803 64.008 213.323 65C212.859 65.976 212.203 66.76 211.355 67.352C210.507 67.944 209.515 68.24 208.379 68.24ZM207.923 66.8C208.611 66.8 209.227 66.664 209.771 66.392C210.315 66.104 210.779 65.72 211.163 65.24C211.563 64.76 211.867 64.224 212.075 63.632C212.283 63.024 212.387 62.4 212.387 61.76C212.387 61.088 212.267 60.448 212.027 59.84C211.803 59.232 211.475 58.696 211.043 58.232C210.611 57.768 210.115 57.4 209.555 57.128C208.995 56.856 208.387 56.72 207.731 56.72C207.315 56.72 206.883 56.8 206.435 56.96C205.987 57.12 205.555 57.352 205.139 57.656C204.739 57.944 204.403 58.272 204.131 58.64C203.859 59.008 203.691 59.4 203.627 59.816V63.656C203.883 64.248 204.227 64.784 204.659 65.264C205.091 65.728 205.587 66.104 206.147 66.392C206.723 66.664 207.315 66.8 207.923 66.8ZM222.232 68.24C221.32 68.24 220.48 68.072 219.712 67.736C218.96 67.384 218.296 66.904 217.72 66.296C217.16 65.688 216.72 64.992 216.4 64.208C216.096 63.424 215.944 62.592 215.944 61.712C215.944 60.528 216.208 59.448 216.736 58.472C217.264 57.496 218 56.72 218.944 56.144C219.888 55.568 220.976 55.28 222.208 55.28C223.376 55.28 224.408 55.552 225.304 56.096C226.2 56.624 226.864 57.344 227.296 58.256L225.712 58.76C225.36 58.12 224.864 57.624 224.224 57.272C223.6 56.904 222.904 56.72 222.136 56.72C221.304 56.72 220.544 56.936 219.856 57.368C219.168 57.8 218.616 58.392 218.2 59.144C217.8 59.896 217.6 60.752 217.6 61.712C217.6 62.656 217.808 63.512 218.224 64.28C218.64 65.048 219.192 65.664 219.88 66.128C220.568 66.576 221.328 66.8 222.16 66.8C222.704 66.8 223.224 66.704 223.72 66.512C224.232 66.32 224.672 66.064 225.04 65.744C225.424 65.408 225.68 65.048 225.808 64.664L227.416 65.144C227.192 65.736 226.816 66.272 226.288 66.752C225.776 67.216 225.168 67.584 224.464 67.856C223.776 68.112 223.032 68.24 222.232 68.24ZM229.956 68V55.496H231.588V60.848H233.46L237.66 55.496H239.532L234.756 61.568L240.132 68H238.212L233.46 62.36H231.588V68H229.956ZM241.394 64.4C241.394 63.616 241.618 62.944 242.066 62.384C242.514 61.808 243.13 61.368 243.914 61.064C244.714 60.744 245.634 60.584 246.674 60.584C247.282 60.584 247.914 60.632 248.57 60.728C249.226 60.824 249.81 60.968 250.322 61.16V60.104C250.322 59.048 250.01 58.208 249.386 57.584C248.762 56.96 247.898 56.648 246.794 56.648C246.122 56.648 245.458 56.776 244.802 57.032C244.162 57.272 243.49 57.632 242.786 58.112L242.162 56.96C242.978 56.4 243.778 55.984 244.562 55.712C245.346 55.424 246.146 55.28 246.962 55.28C248.498 55.28 249.714 55.72 250.61 56.6C251.506 57.48 251.954 58.696 251.954 60.248V66.032C251.954 66.256 252.002 66.424 252.098 66.536C252.194 66.632 252.346 66.688 252.554 66.704V68C252.378 68.016 252.226 68.032 252.098 68.048C251.97 68.064 251.874 68.064 251.81 68.048C251.41 68.032 251.106 67.904 250.898 67.664C250.69 67.424 250.578 67.168 250.562 66.896L250.538 65.984C249.978 66.704 249.25 67.264 248.354 67.664C247.458 68.048 246.546 68.24 245.618 68.24C244.818 68.24 244.09 68.072 243.434 67.736C242.794 67.384 242.29 66.92 241.922 66.344C241.57 65.752 241.394 65.104 241.394 64.4ZM249.77 65.36C249.946 65.136 250.082 64.92 250.178 64.712C250.274 64.504 250.322 64.32 250.322 64.16V62.336C249.778 62.128 249.21 61.968 248.618 61.856C248.042 61.744 247.458 61.688 246.866 61.688C245.698 61.688 244.754 61.92 244.034 62.384C243.314 62.848 242.954 63.48 242.954 64.28C242.954 64.744 243.074 65.184 243.314 65.6C243.554 66 243.906 66.336 244.37 66.608C244.834 66.864 245.378 66.992 246.002 66.992C246.786 66.992 247.514 66.84 248.186 66.536C248.874 66.232 249.402 65.84 249.77 65.36ZM254.544 68L258.264 62.888C257.416 62.76 256.728 62.392 256.2 61.784C255.688 61.16 255.432 60.312 255.432 59.24C255.432 58.52 255.6 57.88 255.936 57.32C256.272 56.76 256.744 56.312 257.352 55.976C257.976 55.64 258.704 55.472 259.536 55.472H264.312V68H262.68V63.152H259.896L256.368 68H254.544ZM259.512 61.904H262.68V56.768H259.8C258.968 56.768 258.304 57.008 257.808 57.488C257.312 57.952 257.064 58.544 257.064 59.264C257.064 60 257.264 60.624 257.664 61.136C258.08 61.648 258.696 61.904 259.512 61.904Z" fill="black"/>
<mask id="path-3-inside-1_9_11" fill="white">
<path fill-rule="evenodd" clip-rule="evenodd" d="M171.166 8H164.829V21.6H171.166V8ZM180.89 16.8257C182.234 15.2268 182.45 14.9357 184.07 12.534L185.808 9.9576L186.74 9.93969L187.672 9.92178L187.817 10.1561C187.897 10.2849 188.421 11.0648 188.981 11.8889L190 13.3875L189.618 14.5462L189.236 15.7051L187.466 17.7121C186.493 18.816 184.668 20.9872 183.412 22.537L181.128 25.3549L180.544 25.7548C180.223 25.9748 179.635 26.3392 179.238 26.5645L178.516 26.9741L176.242 29.9069C174.992 31.5199 173.967 32.8635 173.965 32.8926C173.963 32.9217 177.555 32.8764 181.946 32.792L189.93 32.6385L189.951 35.5624L189.971 38.4863L177.013 38.7355L164.054 38.9846L164.027 35.1095L164 31.2345L167.057 31.1757L170.113 31.1169L170.294 30.7688C170.751 29.8887 170.865 29.0693 170.618 28.4347C170.257 27.5035 169.044 26.3734 167.805 25.8131C167.313 25.5905 166.857 25.5383 166.609 25.676C166.171 25.9196 166.161 28.0112 166.597 28.0718C166.789 28.0984 167.092 27.9181 167.498 27.535C167.904 27.1526 168.049 27.0697 168.321 27.0644C169.018 27.051 169.503 28.11 169.207 28.9975C169.038 29.503 168.159 30.3196 167.427 30.6508C167.066 30.8145 166.939 30.8382 166.506 30.8225C166.068 30.8067 165.962 30.7767 165.671 30.5849C164.831 30.0329 164.291 28.6506 164.277 27.0159C164.264 25.4152 164.721 24.055 165.495 23.394C166.496 22.5385 167.679 22.6325 169.348 23.7004C171.424 25.0284 172.495 26.5989 172.724 28.6518L172.79 29.2356L174.686 26.7141L176.583 24.1927L177.122 22.7378L177.66 21.2829L178.554 19.9119C179.315 18.745 179.663 18.2857 180.89 16.8257ZM188.95 13.4764C188.895 13.3908 188.495 12.7956 188.06 12.1537L187.269 10.9865L186.725 10.9993L186.181 11.0121L184.49 13.5186C182.886 15.8944 182.716 16.1221 181.229 17.8875C180.366 18.9119 179.629 19.791 179.591 19.8409C179.533 19.9166 179.683 20.1853 180.49 21.4516C181.023 22.2876 181.541 23.0872 181.64 23.2287L181.82 23.4858L183.442 21.2454C184.906 19.2228 185.236 18.8092 186.836 16.992L188.607 14.979L188.828 14.3054C189.048 13.635 189.048 13.6312 188.95 13.4764ZM181.515 23.4638C181.52 23.4351 181.059 22.713 180.492 21.8593C179.924 21.0056 179.437 20.3067 179.409 20.306C179.361 20.3049 178.244 21.996 178.157 22.2014C178.129 22.2678 178.414 22.703 179.106 23.6512C179.651 24.3963 180.112 25.0057 180.131 25.0053C180.18 25.0044 181.506 23.5279 181.515 23.4638ZM178.911 25.5572C179.354 25.3162 179.728 25.1014 179.743 25.0799C179.758 25.0584 179.38 24.5151 178.903 23.8727L178.036 22.7045L177.638 23.7785L177.24 24.8524L174.473 28.5331L171.705 32.2138L171.345 32.2207C171.065 32.2261 170.996 32.2079 171.034 32.1386L171.292 31.668C171.709 30.9112 171.952 29.9606 171.944 29.1229C171.934 28.1479 171.679 27.4245 171.035 26.5449C170.356 25.6176 169.301 24.7579 168.237 24.2655C166.28 23.3593 165.075 24.3908 165.093 26.9568C165.098 27.7499 165.197 28.2987 165.43 28.8342C165.944 30.0172 166.95 30.0479 168.156 28.9176C168.466 28.6274 168.559 28.4399 168.467 28.2903C168.367 28.1275 168.243 28.1753 167.876 28.5182C167.21 29.1417 166.582 29.3537 166.192 29.0875C165.631 28.7048 165.333 27.4493 165.513 26.2222C165.697 24.9677 166.201 24.4311 167.131 24.4994C167.651 24.5376 168.098 24.7182 168.852 25.1951C170.026 25.9373 170.958 26.9628 171.33 27.9226C171.499 28.3597 171.506 28.4075 171.512 29.1589L171.517 29.9405L171.282 30.6078C171.148 30.9903 170.923 31.4785 170.755 31.7516L170.462 32.228L167.643 32.287L164.824 32.3461L164.844 35.1292L164.863 37.9123L177.018 37.6609L189.173 37.4095L189.16 35.5776L189.147 33.7458L180.53 33.8762L171.914 34.0066L175.01 30.0011L178.106 25.9955L178.911 25.5572Z"/>
</mask>
<path fill-rule="evenodd" clip-rule="evenodd" d="M171.166 8H164.829V21.6H171.166V8ZM180.89 16.8257C182.234 15.2268 182.45 14.9357 184.07 12.534L185.808 9.9576L186.74 9.93969L187.672 9.92178L187.817 10.1561C187.897 10.2849 188.421 11.0648 188.981 11.8889L190 13.3875L189.618 14.5462L189.236 15.7051L187.466 17.7121C186.493 18.816 184.668 20.9872 183.412 22.537L181.128 25.3549L180.544 25.7548C180.223 25.9748 179.635 26.3392 179.238 26.5645L178.516 26.9741L176.242 29.9069C174.992 31.5199 173.967 32.8635 173.965 32.8926C173.963 32.9217 177.555 32.8764 181.946 32.792L189.93 32.6385L189.951 35.5624L189.971 38.4863L177.013 38.7355L164.054 38.9846L164.027 35.1095L164 31.2345L167.057 31.1757L170.113 31.1169L170.294 30.7688C170.751 29.8887 170.865 29.0693 170.618 28.4347C170.257 27.5035 169.044 26.3734 167.805 25.8131C167.313 25.5905 166.857 25.5383 166.609 25.676C166.171 25.9196 166.161 28.0112 166.597 28.0718C166.789 28.0984 167.092 27.9181 167.498 27.535C167.904 27.1526 168.049 27.0697 168.321 27.0644C169.018 27.051 169.503 28.11 169.207 28.9975C169.038 29.503 168.159 30.3196 167.427 30.6508C167.066 30.8145 166.939 30.8382 166.506 30.8225C166.068 30.8067 165.962 30.7767 165.671 30.5849C164.831 30.0329 164.291 28.6506 164.277 27.0159C164.264 25.4152 164.721 24.055 165.495 23.394C166.496 22.5385 167.679 22.6325 169.348 23.7004C171.424 25.0284 172.495 26.5989 172.724 28.6518L172.79 29.2356L174.686 26.7141L176.583 24.1927L177.122 22.7378L177.66 21.2829L178.554 19.9119C179.315 18.745 179.663 18.2857 180.89 16.8257ZM188.95 13.4764C188.895 13.3908 188.495 12.7956 188.06 12.1537L187.269 10.9865L186.725 10.9993L186.181 11.0121L184.49 13.5186C182.886 15.8944 182.716 16.1221 181.229 17.8875C180.366 18.9119 179.629 19.791 179.591 19.8409C179.533 19.9166 179.683 20.1853 180.49 21.4516C181.023 22.2876 181.541 23.0872 181.64 23.2287L181.82 23.4858L183.442 21.2454C184.906 19.2228 185.236 18.8092 186.836 16.992L188.607 14.979L188.828 14.3054C189.048 13.635 189.048 13.6312 188.95 13.4764ZM181.515 23.4638C181.52 23.4351 181.059 22.713 180.492 21.8593C179.924 21.0056 179.437 20.3067 179.409 20.306C179.361 20.3049 178.244 21.996 178.157 22.2014C178.129 22.2678 178.414 22.703 179.106 23.6512C179.651 24.3963 180.112 25.0057 180.131 25.0053C180.18 25.0044 181.506 23.5279 181.515 23.4638ZM178.911 25.5572C179.354 25.3162 179.728 25.1014 179.743 25.0799C179.758 25.0584 179.38 24.5151 178.903 23.8727L178.036 22.7045L177.638 23.7785L177.24 24.8524L174.473 28.5331L171.705 32.2138L171.345 32.2207C171.065 32.2261 170.996 32.2079 171.034 32.1386L171.292 31.668C171.709 30.9112 171.952 29.9606 171.944 29.1229C171.934 28.1479 171.679 27.4245 171.035 26.5449C170.356 25.6176 169.301 24.7579 168.237 24.2655C166.28 23.3593 165.075 24.3908 165.093 26.9568C165.098 27.7499 165.197 28.2987 165.43 28.8342C165.944 30.0172 166.95 30.0479 168.156 28.9176C168.466 28.6274 168.559 28.4399 168.467 28.2903C168.367 28.1275 168.243 28.1753 167.876 28.5182C167.21 29.1417 166.582 29.3537 166.192 29.0875C165.631 28.7048 165.333 27.4493 165.513 26.2222C165.697 24.9677 166.201 24.4311 167.131 24.4994C167.651 24.5376 168.098 24.7182 168.852 25.1951C170.026 25.9373 170.958 26.9628 171.33 27.9226C171.499 28.3597 171.506 28.4075 171.512 29.1589L171.517 29.9405L171.282 30.6078C171.148 30.9903 170.923 31.4785 170.755 31.7516L170.462 32.228L167.643 32.287L164.824 32.3461L164.844 35.1292L164.863 37.9123L177.018 37.6609L189.173 37.4095L189.16 35.5776L189.147 33.7458L180.53 33.8762L171.914 34.0066L175.01 30.0011L178.106 25.9955L178.911 25.5572Z" fill="black"/>
<path d="M164.829 8V7H163.829V8H164.829ZM171.166 8H172.166V7H171.166V8ZM164.829 21.6H163.829V22.6H164.829V21.6ZM171.166 21.6V22.6H172.166V21.6H171.166ZM184.07 12.534L184.899 13.0932L184.899 13.0932L184.07 12.534ZM180.89 16.8257L180.125 16.1821L180.125 16.1821L180.89 16.8257ZM185.808 9.9576L185.789 8.95779L185.27 8.96777L184.979 9.39838L185.808 9.9576ZM186.74 9.93969L186.759 10.9395L186.759 10.9395L186.74 9.93969ZM187.672 9.92178L188.521 9.39377L188.221 8.91104L187.652 8.92197L187.672 9.92178ZM187.817 10.1561L186.968 10.6841L186.968 10.6844L187.817 10.1561ZM188.981 11.8889L189.808 11.3268L189.808 11.3268L188.981 11.8889ZM190 13.3875L190.95 13.7005L191.104 13.2327L190.827 12.8254L190 13.3875ZM189.618 14.5462L188.668 14.2333L188.668 14.2333L189.618 14.5462ZM189.236 15.7051L189.986 16.3665L190.122 16.2127L190.186 16.018L189.236 15.7051ZM187.466 17.7121L188.216 18.3736L188.216 18.3735L187.466 17.7121ZM183.412 22.537L182.635 21.9073L182.635 21.9073L183.412 22.537ZM181.128 25.3549L181.693 26.18L181.814 26.0977L181.905 25.9845L181.128 25.3549ZM180.544 25.7548L179.979 24.9297L179.979 24.9298L180.544 25.7548ZM179.238 26.5645L178.745 25.6946L178.745 25.6946L179.238 26.5645ZM178.516 26.9741L178.023 26.1043L177.848 26.2031L177.726 26.3614L178.516 26.9741ZM176.242 29.9069L175.452 29.2942L175.452 29.2942L176.242 29.9069ZM173.965 32.8926L172.967 32.8297L172.967 32.8314L173.965 32.8926ZM181.946 32.792L181.965 33.7918L181.965 33.7918L181.946 32.792ZM189.93 32.6385L190.93 32.6315L190.923 31.6193L189.911 31.6387L189.93 32.6385ZM189.951 35.5624L188.951 35.5694L188.951 35.5694L189.951 35.5624ZM189.971 38.4863L189.99 39.4862L190.978 39.4672L190.971 38.4793L189.971 38.4863ZM177.013 38.7355L177.032 39.7353L177.013 38.7355ZM164.054 38.9846L163.054 38.9916L163.061 40.0038L164.074 39.9844L164.054 38.9846ZM164.027 35.1095L165.027 35.1025L164.027 35.1095ZM164 31.2345L163.981 30.2347L162.993 30.2536L163 31.2415L164 31.2345ZM167.057 31.1757L167.076 32.1755L167.076 32.1755L167.057 31.1757ZM170.113 31.1169L170.133 32.1168L170.727 32.1053L171.001 31.5777L170.113 31.1169ZM170.294 30.7688L169.407 30.3079L169.407 30.3079L170.294 30.7688ZM170.618 28.4347L169.686 28.7969L169.686 28.7969L170.618 28.4347ZM167.805 25.8131L168.217 24.902L168.217 24.902L167.805 25.8131ZM166.609 25.676L167.095 26.55L167.095 26.55L166.609 25.676ZM166.597 28.0718L166.46 29.0623L166.46 29.0623L166.597 28.0718ZM167.498 27.535L166.812 26.8075L166.812 26.8076L167.498 27.535ZM168.321 27.0644L168.301 26.0646L168.301 26.0646L168.321 27.0644ZM169.207 28.9975L168.258 28.6803L168.258 28.6803L169.207 28.9975ZM167.427 30.6508L167.015 29.7398L167.015 29.7399L167.427 30.6508ZM166.506 30.8225L166.47 31.8219L166.47 31.8219L166.506 30.8225ZM165.671 30.5849L165.121 31.4205L165.121 31.4205L165.671 30.5849ZM164.277 27.0159L163.277 27.0244L163.277 27.0244L164.277 27.0159ZM165.495 23.394L166.144 24.1543L166.144 24.1543L165.495 23.394ZM169.348 23.7004L169.887 22.858L169.887 22.858L169.348 23.7004ZM172.724 28.6518L171.731 28.7629L171.731 28.763L172.724 28.6518ZM172.79 29.2356L171.796 29.3467L172.076 31.8484L173.589 29.8367L172.79 29.2356ZM174.686 26.7141L173.887 26.113L173.887 26.113L174.686 26.7141ZM176.583 24.1927L177.382 24.7939L177.47 24.677L177.521 24.5399L176.583 24.1927ZM177.122 22.7378L178.06 23.085L178.06 23.085L177.122 22.7378ZM177.66 21.2829L176.823 20.7368L176.762 20.8307L176.723 20.9357L177.66 21.2829ZM178.554 19.9119L177.716 19.3658L177.716 19.3658L178.554 19.9119ZM188.06 12.1537L187.232 12.7146L187.232 12.7146L188.06 12.1537ZM188.95 13.4764L189.794 12.9397L189.794 12.9396L188.95 13.4764ZM187.269 10.9865L188.097 10.4256L187.791 9.97388L187.246 9.98677L187.269 10.9865ZM186.725 10.9993L186.749 11.9991L186.749 11.9991L186.725 10.9993ZM186.181 11.0121L186.158 10.0124L185.641 10.0245L185.353 10.4527L186.181 11.0121ZM184.49 13.5186L185.319 14.078L185.319 14.078L184.49 13.5186ZM181.229 17.8875L180.464 17.2433L180.464 17.2433L181.229 17.8875ZM179.591 19.8409L178.798 19.2314L178.798 19.2316L179.591 19.8409ZM180.49 21.4516L181.333 20.9139L181.333 20.9139L180.49 21.4516ZM181.64 23.2287L180.82 23.8022L180.821 23.8025L181.64 23.2287ZM181.82 23.4858L181.001 24.0596L181.806 25.2095L182.63 24.0723L181.82 23.4858ZM183.442 21.2454L184.252 21.8319L184.252 21.8318L183.442 21.2454ZM186.836 16.992L186.085 16.3313L186.085 16.3313L186.836 16.992ZM188.607 14.979L189.358 15.6397L189.494 15.4855L189.558 15.2904L188.607 14.979ZM188.828 14.3054L189.778 14.6168L189.778 14.6168L188.828 14.3054ZM181.515 23.4638L180.526 23.3215L180.526 23.3218L181.515 23.4638ZM179.409 20.306L179.433 19.3063L179.431 19.3062L179.409 20.306ZM178.157 22.2014L179.078 22.5917L179.078 22.5914L178.157 22.2014ZM179.106 23.6512L178.299 24.241L178.299 24.241L179.106 23.6512ZM180.131 25.0053L180.112 24.0055L180.112 24.0055L180.131 25.0053ZM179.743 25.0799L180.565 25.6496L180.566 25.6484L179.743 25.0799ZM178.911 25.5572L178.433 24.679L178.433 24.679L178.911 25.5572ZM178.903 23.8727L178.1 24.4687L178.1 24.4687L178.903 23.8727ZM178.036 22.7045L178.839 22.1084L177.739 20.6272L177.098 22.357L178.036 22.7045ZM177.638 23.7785L176.7 23.431L176.7 23.431L177.638 23.7785ZM177.24 24.8524L178.039 25.4534L178.127 25.3368L178.178 25.1999L177.24 24.8524ZM174.473 28.5331L173.673 27.9322L173.673 27.9322L174.473 28.5331ZM171.705 32.2138L171.724 33.2136L172.212 33.2042L172.505 32.8147L171.705 32.2138ZM171.345 32.2207L171.364 33.2205L171.364 33.2205L171.345 32.2207ZM171.034 32.1386L170.157 31.6567L170.157 31.6579L171.034 32.1386ZM171.292 31.668L170.416 31.1858L170.416 31.1861L171.292 31.668ZM171.944 29.1229L172.944 29.1128L172.944 29.1128L171.944 29.1229ZM171.035 26.5449L170.228 27.1355L170.228 27.1356L171.035 26.5449ZM168.237 24.2655L167.817 25.173L167.817 25.173L168.237 24.2655ZM165.093 26.9568L166.093 26.9498L166.093 26.9498L165.093 26.9568ZM165.43 28.8342L166.347 28.4354L166.347 28.4354L165.43 28.8342ZM168.156 28.9176L167.473 28.1878L167.473 28.1878L168.156 28.9176ZM168.467 28.2903L169.319 27.7665L169.319 27.7663L168.467 28.2903ZM167.876 28.5182L168.559 29.2485L168.559 29.2485L167.876 28.5182ZM166.192 29.0875L166.755 28.2613L166.755 28.2613L166.192 29.0875ZM165.513 26.2222L166.503 26.3673L166.503 26.3672L165.513 26.2222ZM167.131 24.4994L167.057 25.4967L167.057 25.4967L167.131 24.4994ZM168.852 25.1951L168.318 26.0404L168.318 26.0404L168.852 25.1951ZM171.33 27.9226L172.262 27.5613L172.262 27.5613L171.33 27.9226ZM171.512 29.1589L172.512 29.1519L172.512 29.1519L171.512 29.1589ZM171.517 29.9405L172.46 30.2722L172.518 30.1078L172.517 29.9335L171.517 29.9405ZM171.282 30.6078L170.339 30.2761L170.339 30.2761L171.282 30.6078ZM170.755 31.7516L169.903 31.2275L169.903 31.2275L170.755 31.7516ZM170.462 32.228L170.482 33.2277L171.028 33.2163L171.313 32.752L170.462 32.228ZM167.643 32.287L167.664 33.2868L167.664 33.2868L167.643 32.287ZM164.824 32.3461L164.803 31.3463L163.817 31.3669L163.824 32.3531L164.824 32.3461ZM164.844 35.1292L163.844 35.1362L163.844 35.1362L164.844 35.1292ZM164.863 37.9123L163.863 37.9193L163.87 38.9331L164.884 38.9121L164.863 37.9123ZM177.018 37.6609L177.039 38.6607L177.039 38.6607L177.018 37.6609ZM189.173 37.4095L189.193 38.4093L190.18 38.3889L190.173 37.4025L189.173 37.4095ZM189.16 35.5776L190.16 35.5706L190.16 35.5706L189.16 35.5776ZM189.147 33.7458L190.147 33.7388L190.14 32.7307L189.132 32.7459L189.147 33.7458ZM180.53 33.8762L180.545 34.8761L180.545 34.8761L180.53 33.8762ZM171.914 34.0066L171.122 33.395L169.852 35.0379L171.929 35.0065L171.914 34.0066ZM175.01 30.0011L175.801 30.6127L175.801 30.6127L175.01 30.0011ZM178.106 25.9955L177.628 25.1172L177.444 25.2177L177.315 25.3839L178.106 25.9955ZM164.829 9H171.166V7H164.829V9ZM165.829 21.6V8H163.829V21.6H165.829ZM171.166 20.6H164.829V22.6H171.166V20.6ZM170.166 8V21.6H172.166V8H170.166ZM183.241 11.9748C181.634 14.3575 181.44 14.6182 180.125 16.1821L181.655 17.4692C183.029 15.8353 183.266 15.5139 184.899 13.0932L183.241 11.9748ZM184.979 9.39838L183.241 11.9748L184.899 13.0932L186.637 10.5168L184.979 9.39838ZM186.721 8.93988L185.789 8.95779L185.827 10.9574L186.759 10.9395L186.721 8.93988ZM187.652 8.92197L186.721 8.93988L186.759 10.9395L187.691 10.9216L187.652 8.92197ZM188.666 9.62809L188.521 9.39377L186.822 10.4498L186.968 10.6841L188.666 9.62809ZM189.808 11.3268C189.241 10.4915 188.733 9.73459 188.666 9.62784L186.968 10.6844C187.062 10.8352 187.602 11.6381 188.154 12.4511L189.808 11.3268ZM190.827 12.8254L189.808 11.3268L188.154 12.4511L189.173 13.9497L190.827 12.8254ZM190.568 14.8592L190.95 13.7005L189.05 13.0745L188.668 14.2333L190.568 14.8592ZM190.186 16.018L190.568 14.8592L188.668 14.2333L188.287 15.3921L190.186 16.018ZM188.216 18.3735L189.986 16.3665L188.486 15.0436L186.716 17.0507L188.216 18.3735ZM184.189 23.1666C185.439 21.6241 187.254 19.4641 188.216 18.3736L186.716 17.0507C185.731 18.1678 183.897 20.3503 182.635 21.9073L184.189 23.1666ZM181.905 25.9845L184.189 23.1666L182.635 21.9073L180.352 24.7252L181.905 25.9845ZM181.109 26.5799L181.693 26.18L180.563 24.5298L179.979 24.9297L181.109 26.5799ZM179.732 27.4343C180.149 27.1974 180.762 26.8182 181.11 26.5798L179.979 24.9298C179.685 25.1314 179.122 25.4809 178.745 25.6946L179.732 27.4343ZM179.009 27.8439L179.732 27.4343L178.745 25.6946L178.023 26.1043L179.009 27.8439ZM177.032 30.5196L179.306 27.5869L177.726 26.3614L175.452 29.2942L177.032 30.5196ZM174.963 32.9555C174.954 33.0958 174.917 33.2001 174.907 33.2289C174.891 33.2725 174.876 33.3058 174.867 33.3233C174.85 33.3587 174.835 33.3848 174.83 33.3938C174.823 33.4058 174.817 33.4146 174.814 33.4188C174.811 33.4234 174.809 33.4266 174.808 33.4278C174.807 33.43 174.811 33.424 174.824 33.4053C174.85 33.3703 174.89 33.315 174.947 33.2387C175.06 33.0876 175.225 32.8698 175.43 32.6002C175.841 32.0617 176.408 31.3247 177.032 30.5196L175.452 29.2942C174.825 30.1021 174.255 30.8435 173.84 31.3873C173.633 31.6588 173.463 31.8831 173.344 32.0425C173.285 32.1215 173.236 32.1886 173.2 32.2389C173.183 32.2629 173.163 32.2903 173.146 32.3162C173.138 32.3276 173.123 32.3506 173.107 32.3783C173.099 32.3908 173.083 32.4196 173.064 32.4573C173.056 32.4758 173.04 32.5101 173.024 32.5545C173.013 32.5841 172.976 32.689 172.967 32.8297L174.963 32.9555ZM181.927 31.7922C179.733 31.8344 177.739 31.8668 176.295 31.885C175.573 31.8941 174.991 31.8996 174.59 31.9011C174.389 31.9018 174.238 31.9015 174.14 31.9002C174.089 31.8995 174.062 31.8987 174.052 31.8982C174.043 31.8978 174.059 31.8983 174.086 31.9013C174.093 31.902 174.142 31.9071 174.205 31.9225C174.227 31.9279 174.318 31.9499 174.424 32.0047C174.475 32.0311 174.59 32.095 174.701 32.2163C174.822 32.3475 174.985 32.6016 174.963 32.9538L172.967 32.8314C172.945 33.1838 173.108 33.4382 173.229 33.5696C173.341 33.6911 173.455 33.7552 173.507 33.7818C173.614 33.8371 173.706 33.8595 173.73 33.8654C173.797 33.8815 173.851 33.8875 173.865 33.889C173.905 33.8935 173.942 33.8953 173.96 33.8962C174.005 33.8982 174.059 33.8993 174.114 33.9C174.23 33.9015 174.394 33.9018 174.597 33.901C175.007 33.8996 175.596 33.8939 176.321 33.8848C177.77 33.8665 179.768 33.8341 181.965 33.7918L181.927 31.7922ZM189.911 31.6387L181.927 31.7922L181.965 33.7918L189.949 33.6383L189.911 31.6387ZM190.951 35.5554L190.93 32.6315L188.93 32.6455L188.951 35.5694L190.951 35.5554ZM190.971 38.4793L190.951 35.5554L188.951 35.5694L188.971 38.4933L190.971 38.4793ZM177.032 39.7353L189.99 39.4862L189.952 37.4865L176.994 37.7356L177.032 39.7353ZM164.074 39.9844L177.032 39.7353L176.994 37.7356L164.035 37.9848L164.074 39.9844ZM163.027 35.1165L163.054 38.9916L165.054 38.9776L165.027 35.1025L163.027 35.1165ZM163 31.2415L163.027 35.1165L165.027 35.1025L165 31.2275L163 31.2415ZM167.037 30.1759L163.981 30.2347L164.019 32.2343L167.076 32.1755L167.037 30.1759ZM170.094 30.1171L167.037 30.1759L167.076 32.1755L170.133 32.1168L170.094 30.1171ZM169.407 30.3079L169.226 30.6561L171.001 31.5777L171.182 31.2296L169.407 30.3079ZM169.686 28.7969C169.788 29.0599 169.793 29.5642 169.407 30.3079L171.182 31.2296C171.709 30.2133 171.941 29.0787 171.55 28.0725L169.686 28.7969ZM167.393 26.7242C167.902 26.9547 168.426 27.313 168.859 27.7164C169.304 28.1311 169.581 28.5255 169.686 28.7969L171.55 28.0726C171.294 27.4127 170.784 26.7765 170.222 26.2532C169.649 25.7186 168.946 25.2318 168.217 24.902L167.393 26.7242ZM167.095 26.55C167.022 26.5908 166.969 26.5986 166.959 26.5998C166.949 26.6012 166.962 26.5983 167.002 26.6029C167.084 26.6124 167.22 26.6461 167.393 26.7242L168.217 24.902C167.898 24.7576 167.56 24.6538 167.229 24.6159C166.921 24.5805 166.505 24.5901 166.123 24.802L167.095 26.55ZM166.735 27.0812C167.095 27.1313 167.264 27.3712 167.296 27.4221C167.336 27.4845 167.336 27.5109 167.322 27.4572C167.297 27.3595 167.274 27.1768 167.275 26.9476C167.276 26.7223 167.3 26.5164 167.333 26.3791C167.35 26.3091 167.362 26.2892 167.355 26.3029C167.35 26.3114 167.334 26.3428 167.299 26.3843C167.264 26.4256 167.199 26.4923 167.095 26.55L166.124 24.8019C165.819 24.9713 165.656 25.2325 165.575 25.3898C165.486 25.5648 165.428 25.7487 165.389 25.9101C165.311 26.2353 165.277 26.6017 165.275 26.9374C165.274 27.2691 165.303 27.6359 165.385 27.955C165.424 28.1097 165.491 28.3114 165.612 28.5007C165.726 28.6786 165.99 28.9971 166.46 29.0623L166.735 27.0812ZM166.812 26.8076C166.635 26.9746 166.518 27.0609 166.456 27.0979C166.426 27.1155 166.431 27.1087 166.466 27.0978C166.499 27.0874 166.597 27.0622 166.734 27.0812L166.46 29.0623C166.902 29.1235 167.273 28.9388 167.479 28.8162C167.718 28.674 167.955 28.4786 168.184 28.2625L166.812 26.8076ZM168.301 26.0646C168.034 26.0698 167.758 26.1213 167.463 26.2903C167.227 26.4254 167.012 26.6191 166.812 26.8075L168.184 28.2626C168.279 28.1728 168.346 28.1136 168.395 28.0729C168.445 28.0322 168.461 28.0232 168.456 28.0262C168.445 28.0326 168.416 28.0468 168.376 28.0568C168.34 28.0658 168.321 28.0646 168.34 28.0643L168.301 26.0646ZM170.155 29.3146C170.389 28.6142 170.315 27.8654 170.045 27.2764C169.791 26.7204 169.214 26.0471 168.301 26.0646L168.34 28.0643C168.244 28.0661 168.183 28.0271 168.17 28.0166C168.164 28.0116 168.193 28.0345 168.227 28.1098C168.3 28.2688 168.321 28.4933 168.258 28.6803L170.155 29.3146ZM167.84 31.5618C168.329 31.3401 168.821 30.9828 169.209 30.622C169.566 30.2902 169.987 29.817 170.155 29.3146L168.258 28.6803C168.266 28.6571 168.253 28.7016 168.168 28.8127C168.09 28.9132 167.981 29.0324 167.847 29.157C167.571 29.4137 167.257 29.6303 167.015 29.7398L167.84 31.5618ZM166.47 31.8219C166.694 31.83 166.929 31.8331 167.177 31.787C167.431 31.7395 167.644 31.6507 167.84 31.5617L167.015 29.7399C166.85 29.8146 166.818 29.8194 166.81 29.8208C166.796 29.8236 166.75 29.8307 166.542 29.8232L166.47 31.8219ZM165.121 31.4205C165.286 31.529 165.49 31.6548 165.76 31.7316C166.007 31.8019 166.254 31.8141 166.47 31.8219L166.542 29.8232C166.439 29.8194 166.378 29.8155 166.337 29.8112C166.3 29.8073 166.295 29.8046 166.307 29.8078C166.342 29.8177 166.347 29.8326 166.22 29.7494L165.121 31.4205ZM163.277 27.0244C163.285 27.9439 163.441 28.8211 163.733 29.57C164.021 30.3072 164.471 30.9932 165.121 31.4205L166.22 29.7494C166.03 29.6246 165.791 29.3433 165.596 28.8427C165.405 28.3538 165.284 27.7226 165.277 27.0074L163.277 27.0244ZM164.845 22.6336C163.744 23.5742 163.263 25.297 163.277 27.0244L165.277 27.0074C165.265 25.5334 165.698 24.5357 166.144 24.1543L164.845 22.6336ZM169.887 22.858C168.991 22.2844 168.115 21.8978 167.25 21.8291C166.335 21.7563 165.531 22.0478 164.845 22.6337L166.144 24.1543C166.46 23.8847 166.748 23.7955 167.092 23.8228C167.487 23.8542 168.037 24.0485 168.809 24.5428L169.887 22.858ZM173.718 28.5408C173.449 26.129 172.163 24.3139 169.887 22.858L168.809 24.5428C170.686 25.743 171.541 27.0688 171.731 28.7629L173.718 28.5408ZM173.784 29.1245L173.718 28.5407L171.731 28.763L171.796 29.3467L173.784 29.1245ZM173.887 26.113L171.991 28.6345L173.589 29.8367L175.486 27.3152L173.887 26.113ZM175.784 23.5915L173.887 26.113L175.486 27.3153L177.382 24.7939L175.784 23.5915ZM176.184 22.3906L175.645 23.8455L177.521 24.5399L178.06 23.085L176.184 22.3906ZM176.723 20.9357L176.184 22.3906L178.06 23.085L178.598 21.6301L176.723 20.9357ZM177.716 19.3658L176.823 20.7368L178.498 21.829L179.392 20.458L177.716 19.3658ZM180.125 16.1821C178.88 17.6627 178.506 18.1552 177.716 19.3658L179.392 20.458C180.124 19.3348 180.445 18.9087 181.656 17.4692L180.125 16.1821ZM187.232 12.7146C187.449 13.0348 187.657 13.3431 187.818 13.5818C187.898 13.7012 187.966 13.8026 188.017 13.8791C188.043 13.9174 188.064 13.9489 188.08 13.9729C188.088 13.9849 188.094 13.9945 188.099 14.0019C188.101 14.0056 188.103 14.0084 188.104 14.0105C188.106 14.0127 188.106 14.0135 188.106 14.0132L189.794 12.9396C189.729 12.8383 189.317 12.2258 188.888 11.5928L187.232 12.7146ZM186.441 11.5474L187.232 12.7146L188.888 11.5928L188.097 10.4256L186.441 11.5474ZM186.749 11.9991L187.293 11.9862L187.246 9.98677L186.702 9.99962L186.749 11.9991ZM186.205 12.0118L186.749 11.9991L186.702 9.99962L186.158 10.0124L186.205 12.0118ZM185.319 14.078L187.01 11.5716L185.353 10.4527L183.661 12.9592L185.319 14.078ZM181.994 18.5317C183.508 16.7337 183.7 16.4766 185.319 14.078L183.661 12.9592C182.073 15.3123 181.924 15.5106 180.464 17.2433L181.994 18.5317ZM180.384 20.4503C180.377 20.4587 180.41 20.4179 180.509 20.2994C180.597 20.1949 180.719 20.0491 180.867 19.8723C181.163 19.5189 181.563 19.0435 181.994 18.5317L180.464 17.2433C179.617 18.249 178.854 19.158 178.798 19.2314L180.384 20.4503ZM181.333 20.9139C180.925 20.2736 180.703 19.9164 180.589 19.7122C180.527 19.6013 180.529 19.5907 180.542 19.6307C180.549 19.6514 180.579 19.7422 180.58 19.8731C180.581 20.0232 180.542 20.2436 180.384 20.4502L178.798 19.2316C178.448 19.6868 178.617 20.1797 178.644 20.2622C178.695 20.4134 178.773 20.5633 178.843 20.6873C178.991 20.953 179.248 21.3633 179.647 21.9893L181.333 20.9139ZM182.459 22.6552C182.376 22.5362 181.873 21.7607 181.333 20.9139L179.647 21.9893C180.173 22.8145 180.706 23.6382 180.82 23.8022L182.459 22.6552ZM182.639 22.912L182.459 22.6549L180.821 23.8025L181.001 24.0596L182.639 22.912ZM182.632 20.659L181.01 22.8994L182.63 24.0723L184.252 21.8319L182.632 20.659ZM186.085 16.3313C184.464 18.173 184.114 18.6115 182.632 20.659L184.252 21.8318C185.698 19.8341 186.008 19.4454 187.586 17.6526L186.085 16.3313ZM187.857 14.3183L186.085 16.3313L187.586 17.6526L189.358 15.6397L187.857 14.3183ZM187.878 13.994L187.657 14.6676L189.558 15.2904L189.778 14.6168L187.878 13.994ZM188.106 14.0132C188.122 14.0376 188.115 14.0284 188.107 14.0132C188.095 13.9923 188.071 13.9455 188.05 13.8799C188.028 13.8108 188.017 13.7416 188.014 13.6766C188.011 13.6162 188.016 13.5718 188.019 13.5522C188.022 13.5335 188.024 13.5282 188.02 13.544C188.016 13.5591 188.009 13.5842 187.997 13.6249C187.971 13.7087 187.934 13.8222 187.878 13.9941L189.778 14.6168C189.87 14.3369 189.966 14.056 189.998 13.8429C190.02 13.6905 190.026 13.4927 189.956 13.274C189.899 13.0946 189.802 12.9536 189.794 12.9397L188.106 14.0132ZM179.659 22.4127C179.94 22.836 180.193 23.2246 180.375 23.5088C180.466 23.6518 180.536 23.7637 180.581 23.8387C180.605 23.8777 180.617 23.8979 180.62 23.9041C180.623 23.9093 180.615 23.8955 180.604 23.8716C180.599 23.8615 180.584 23.8288 180.569 23.7839C180.561 23.7618 180.547 23.7188 180.536 23.6627C180.528 23.6242 180.501 23.4913 180.526 23.3215L182.505 23.6062C182.53 23.4355 182.503 23.3014 182.495 23.2613C182.483 23.2036 182.469 23.1587 182.46 23.1343C182.443 23.085 182.426 23.0465 182.418 23.0293C182.4 22.9912 182.382 22.9582 182.372 22.9392C182.349 22.8971 182.32 22.8495 182.293 22.8034C182.235 22.7082 182.155 22.5808 182.061 22.433C181.871 22.1356 181.611 21.7363 181.325 21.3059L179.659 22.4127ZM179.386 21.3057C179.158 21.3004 178.995 21.218 178.944 21.1908C178.875 21.1542 178.825 21.1172 178.8 21.098C178.75 21.0589 178.715 21.0242 178.705 21.0135C178.69 20.9985 178.68 20.987 178.676 20.9821C178.671 20.9765 178.668 20.973 178.668 20.9725C178.667 20.9717 178.67 20.9754 178.678 20.9854C178.685 20.9949 178.695 21.0077 178.707 21.0241C178.757 21.0915 178.832 21.1965 178.928 21.3345C179.119 21.6084 179.378 21.9902 179.659 22.4127L181.325 21.3059C181.038 20.8748 180.77 20.4802 180.569 20.191C180.469 20.0475 180.381 19.9242 180.314 19.8338C180.282 19.7904 180.247 19.7438 180.213 19.7033C180.199 19.6857 180.17 19.6514 180.135 19.6148C180.119 19.5988 180.08 19.56 180.026 19.5182C180 19.4976 179.949 19.4596 179.878 19.4223C179.825 19.3944 179.662 19.3116 179.433 19.3063L179.386 21.3057ZM179.078 22.5914C179.058 22.6379 179.049 22.6467 179.095 22.57C179.127 22.5149 179.173 22.4404 179.229 22.3504C179.342 22.1712 179.487 21.9473 179.632 21.7275C179.778 21.5073 179.919 21.2973 180.026 21.1453C180.08 21.0678 180.119 21.0138 180.142 20.9831C180.155 20.9654 180.153 20.9693 180.141 20.9836C180.137 20.988 180.111 21.0176 180.071 21.0536C180.053 21.0701 180.007 21.1107 179.94 21.1528C179.906 21.1743 179.848 21.2079 179.772 21.2378C179.7 21.2656 179.564 21.3096 179.387 21.3058L179.431 19.3062C179.117 19.2993 178.9 19.444 178.872 19.4616C178.803 19.5053 178.754 19.5482 178.732 19.5679C178.685 19.6102 178.651 19.6494 178.636 19.6661C178.602 19.7052 178.57 19.7455 178.549 19.7743C178.501 19.8367 178.444 19.9163 178.386 20.0003C178.266 20.1715 178.114 20.397 177.963 20.6251C177.812 20.8536 177.659 21.0909 177.536 21.2865C177.475 21.3839 177.419 21.4752 177.373 21.5519C177.341 21.607 177.278 21.7135 177.236 21.8114L179.078 22.5914ZM179.914 23.0614C179.569 22.589 179.337 22.2606 179.198 22.0478C179.126 21.9379 179.094 21.8819 179.084 21.8634C179.078 21.8509 179.095 21.8814 179.114 21.9385C179.123 21.9669 179.142 22.0312 179.151 22.1183C179.158 22.1934 179.168 22.3782 179.078 22.5917L177.236 21.8111C177.142 22.0329 177.152 22.2289 177.161 22.3181C177.171 22.4194 177.194 22.5007 177.209 22.5493C177.24 22.6466 177.281 22.7294 177.308 22.7818C177.365 22.8932 177.443 23.0177 177.525 23.1434C177.694 23.4019 177.951 23.7651 178.299 24.241L179.914 23.0614ZM180.112 24.0055C180.27 24.0024 180.393 24.0378 180.46 24.061C180.531 24.086 180.586 24.1144 180.62 24.1333C180.686 24.1704 180.733 24.2068 180.753 24.223C180.796 24.2576 180.826 24.2877 180.834 24.2955C180.846 24.3076 180.854 24.3167 180.857 24.3202C180.859 24.3223 180.86 24.324 180.861 24.3249C180.862 24.3259 180.863 24.3265 180.863 24.3266C180.863 24.3267 180.862 24.3256 180.86 24.3231C180.858 24.3206 180.855 24.3172 180.851 24.3128C180.844 24.304 180.835 24.2923 180.823 24.2777C180.776 24.2176 180.704 24.1251 180.613 24.0044C180.432 23.7647 180.184 23.4308 179.914 23.0613L178.299 24.241C178.573 24.6167 178.828 24.96 179.018 25.2112C179.113 25.3359 179.194 25.4422 179.255 25.5196C179.285 25.5569 179.316 25.5958 179.345 25.629C179.357 25.6434 179.381 25.6713 179.411 25.7012C179.423 25.7137 179.457 25.7472 179.503 25.7841C179.525 25.8015 179.573 25.8388 179.639 25.8764C179.671 25.894 179.869 26.0105 180.15 26.0051L180.112 24.0055ZM180.526 23.3218C180.546 23.177 180.595 23.0729 180.606 23.0482C180.625 23.0073 180.643 22.9771 180.651 22.9626C180.669 22.933 180.683 22.9135 180.685 22.9108C180.691 22.9028 180.689 22.9052 180.675 22.9234C180.648 22.9569 180.604 23.0099 180.543 23.0808C180.423 23.2204 180.261 23.4048 180.094 23.59C179.928 23.7753 179.763 23.9557 179.639 24.0876C179.576 24.1547 179.529 24.2027 179.501 24.2309C179.485 24.2467 179.485 24.2458 179.495 24.2365C179.499 24.2337 179.522 24.2128 179.558 24.1873C179.575 24.1754 179.615 24.1476 179.67 24.1184C179.698 24.1036 179.745 24.0808 179.806 24.0598C179.86 24.041 179.969 24.0082 180.112 24.0055L180.15 26.0051C180.398 26.0004 180.576 25.9019 180.598 25.89C180.657 25.8594 180.7 25.8294 180.721 25.8147C180.764 25.7835 180.798 25.7543 180.814 25.7406C180.849 25.7095 180.883 25.6767 180.908 25.652C180.961 25.599 181.027 25.531 181.095 25.4585C181.234 25.3113 181.41 25.1184 181.582 24.9265C181.755 24.7344 181.928 24.5377 182.061 24.3824C182.127 24.3058 182.188 24.233 182.236 24.1734C182.259 24.1452 182.287 24.1093 182.313 24.0726C182.325 24.0556 182.347 24.0241 182.37 23.9852C182.382 23.9661 182.401 23.9317 182.422 23.8876C182.435 23.8595 182.484 23.7527 182.505 23.6059L180.526 23.3218ZM178.921 24.5102C178.96 24.4546 178.996 24.4145 179.017 24.3931C179.039 24.3695 179.058 24.3513 179.072 24.3396C179.097 24.3165 179.118 24.3002 179.128 24.2925C179.148 24.2769 179.163 24.2671 179.165 24.2661C179.17 24.2628 179.166 24.2653 179.148 24.2761C179.116 24.2961 179.063 24.3273 178.99 24.3688C178.847 24.4508 178.65 24.561 178.433 24.679L179.389 26.4355C179.615 26.3124 179.827 26.1948 179.985 26.1037C180.064 26.0586 180.135 26.0171 180.19 25.9833C180.217 25.9671 180.248 25.9474 180.278 25.9273C180.292 25.9179 180.317 25.9011 180.345 25.8798C180.358 25.8694 180.382 25.8505 180.41 25.8254C180.426 25.8111 180.497 25.7479 180.565 25.6496L178.921 24.5102ZM178.1 24.4687C178.335 24.7843 178.542 25.0722 178.687 25.2804C178.76 25.386 178.812 25.4632 178.842 25.5102C178.859 25.5366 178.859 25.5383 178.852 25.5248C178.851 25.5224 178.831 25.4862 178.81 25.4326C178.801 25.4098 178.775 25.3418 178.759 25.2492C178.75 25.2025 178.739 25.1165 178.746 25.0086C178.753 24.9067 178.783 24.711 178.921 24.5115L180.566 25.6484C180.704 25.4482 180.734 25.2515 180.741 25.1485C180.749 25.0394 180.737 24.952 180.729 24.9036C180.712 24.8076 180.684 24.7352 180.673 24.7071C180.649 24.6429 180.621 24.5922 180.61 24.5716C180.583 24.5218 180.553 24.4725 180.529 24.4349C180.477 24.354 180.407 24.2511 180.328 24.1379C180.169 23.9085 179.949 23.6035 179.706 23.2766L178.1 24.4687ZM177.233 23.3005L178.1 24.4687L179.706 23.2766L178.839 22.1084L177.233 23.3005ZM178.576 24.126L178.974 23.052L177.098 22.357L176.7 23.431L178.576 24.126ZM178.178 25.1999L178.576 24.1259L176.7 23.431L176.302 24.505L178.178 25.1999ZM175.272 29.1341L178.039 25.4534L176.441 24.2515L173.673 27.9322L175.272 29.1341ZM172.505 32.8147L175.272 29.1341L173.673 27.9322L170.906 31.6128L172.505 32.8147ZM171.364 33.2205L171.724 33.2136L171.686 31.214L171.326 31.2209L171.364 33.2205ZM170.157 31.6579C170.108 31.747 169.9 32.1499 170.127 32.6174C170.335 33.0472 170.736 33.1539 170.815 33.1746C171.023 33.2295 171.258 33.2226 171.364 33.2205L171.326 31.2209C171.264 31.2221 171.231 31.2215 171.217 31.2209C171.191 31.2197 171.243 31.2192 171.325 31.2407C171.356 31.2489 171.73 31.3384 171.927 31.7455C172.142 32.1902 171.94 32.5648 171.91 32.6193L170.157 31.6579ZM170.416 31.1861L170.157 31.6567L171.91 32.6205L172.169 32.1499L170.416 31.1861ZM170.944 29.133C170.95 29.7931 170.753 30.5748 170.416 31.1858L172.168 32.1502C172.665 31.2476 172.954 30.128 172.944 29.1128L170.944 29.133ZM170.228 27.1356C170.764 27.8674 170.936 28.3913 170.944 29.133L172.944 29.1128C172.931 27.9044 172.594 26.9816 171.842 25.9542L170.228 27.1356ZM167.817 25.173C168.73 25.5957 169.651 26.3477 170.228 27.1355L171.842 25.9542C171.061 24.8874 169.871 23.92 168.657 23.358L167.817 25.173ZM166.093 26.9498C166.084 25.7627 166.371 25.243 166.574 25.0688C166.697 24.9638 167.017 24.8025 167.817 25.173L168.657 23.358C167.5 22.8223 166.239 22.7237 165.274 23.5494C164.39 24.3059 164.083 25.5849 164.093 26.9638L166.093 26.9498ZM166.347 28.4354C166.183 28.0594 166.097 27.6535 166.093 26.9498L164.093 26.9638C164.099 27.8464 164.21 28.5381 164.512 29.2331L166.347 28.4354ZM167.473 28.1878C166.935 28.6913 166.632 28.7459 166.564 28.7438C166.555 28.7436 166.554 28.7456 166.536 28.7309C166.506 28.7063 166.431 28.6286 166.347 28.4354L164.512 29.233C164.864 30.0409 165.518 30.7128 166.503 30.7429C167.368 30.7694 168.171 30.2742 168.84 29.6473L167.473 28.1878ZM167.615 28.8141C167.544 28.6984 167.499 28.5529 167.501 28.3968C167.503 28.2527 167.544 28.1515 167.566 28.1077C167.587 28.0655 167.6 28.0539 167.582 28.0764C167.564 28.097 167.531 28.1333 167.473 28.1878L168.84 29.6474C169.016 29.4827 169.226 29.2632 169.358 28.9948C169.519 28.6702 169.59 28.2078 169.319 27.7665L167.615 28.8141ZM168.559 29.2485C168.643 29.1706 168.693 29.1276 168.722 29.1054C168.76 29.0761 168.722 29.1126 168.632 29.1475C168.523 29.1895 168.28 29.2487 168 29.1324C167.751 29.0288 167.638 28.8515 167.615 28.8143L169.319 27.7663C169.246 27.6476 169.08 27.4152 168.768 27.2855C168.425 27.1432 168.11 27.2052 167.911 27.2817C167.732 27.3511 167.588 27.4536 167.497 27.5246C167.396 27.6027 167.293 27.6943 167.193 27.7879L168.559 29.2485ZM165.629 29.9137C166.167 30.2806 166.776 30.2444 167.251 30.0838C167.72 29.9252 168.164 29.6185 168.559 29.2485L167.193 27.7879C166.922 28.0414 166.719 28.1525 166.61 28.1891C166.508 28.2239 166.608 28.1607 166.755 28.2613L165.629 29.9137ZM164.524 26.0771C164.416 26.8086 164.449 27.5571 164.602 28.202C164.743 28.7974 165.036 29.5099 165.629 29.9138L166.755 28.2613C166.786 28.2824 166.651 28.1757 166.548 27.7409C166.456 27.3557 166.43 26.8628 166.503 26.3673L164.524 26.0771ZM167.204 23.5021C166.516 23.4515 165.833 23.6269 165.313 24.1802C164.842 24.6822 164.627 25.3711 164.524 26.0771L166.503 26.3672C166.583 25.8187 166.712 25.6121 166.771 25.5492C166.791 25.5277 166.806 25.5193 166.828 25.512C166.857 25.5025 166.925 25.487 167.057 25.4967L167.204 23.5021ZM169.387 24.3498C168.579 23.8395 167.966 23.5581 167.204 23.5021L167.057 25.4967C167.336 25.5172 167.616 25.5968 168.318 26.0404L169.387 24.3498ZM172.262 27.5613C171.79 26.3423 170.679 25.167 169.387 24.3498L168.318 26.0404C169.373 26.7076 170.126 27.5833 170.397 28.2839L172.262 27.5613ZM172.512 29.1519C172.509 28.8027 172.508 28.5225 172.472 28.2775C172.43 27.9928 172.346 27.776 172.262 27.5613L170.397 28.2839C170.484 28.5064 170.488 28.532 170.493 28.5683C170.504 28.6443 170.509 28.7637 170.512 29.1659L172.512 29.1519ZM172.517 29.9335L172.512 29.1519L170.512 29.1659L170.517 29.9475L172.517 29.9335ZM172.226 30.9395L172.46 30.2722L170.574 29.6088L170.339 30.2761L172.226 30.9395ZM171.606 32.2756C171.82 31.9284 172.074 31.3724 172.226 30.9395L170.339 30.2761C170.222 30.6082 170.025 31.0286 169.903 31.2275L171.606 32.2756ZM171.313 32.752L171.606 32.2756L169.903 31.2275L169.61 31.704L171.313 32.752ZM167.664 33.2868L170.482 33.2277L170.441 31.2282L167.622 31.2872L167.664 33.2868ZM164.845 33.3458L167.664 33.2868L167.622 31.2872L164.803 31.3463L164.845 33.3458ZM165.844 35.1222L165.824 32.3391L163.824 32.3531L163.844 35.1362L165.844 35.1222ZM165.863 37.9053L165.844 35.1222L163.844 35.1362L163.863 37.9193L165.863 37.9053ZM176.997 36.6611L164.843 36.9125L164.884 38.9121L177.039 38.6607L176.997 36.6611ZM189.152 36.4097L176.997 36.6611L177.039 38.6607L189.193 38.4093L189.152 36.4097ZM188.16 35.5846L188.173 37.4165L190.173 37.4025L190.16 35.5706L188.16 35.5846ZM188.147 33.7528L188.16 35.5846L190.16 35.5706L190.147 33.7388L188.147 33.7528ZM180.545 34.8761L189.162 34.7457L189.132 32.7459L180.515 32.8763L180.545 34.8761ZM171.929 35.0065L180.545 34.8761L180.515 32.8763L171.898 33.0067L171.929 35.0065ZM174.219 29.3895L171.122 33.395L172.705 34.6182L175.801 30.6127L174.219 29.3895ZM177.315 25.3839L174.219 29.3895L175.801 30.6127L178.897 26.6071L177.315 25.3839ZM178.433 24.679L177.628 25.1172L178.584 26.8738L179.389 26.4355L178.433 24.679Z" fill="black" mask="url(#path-3-inside-1_9_11)"/>
</svg>
