<svg width="30" height="38" viewBox="0 0 30 38" fill="none" xmlns="http://www.w3.org/2000/svg">
<path d="M4.58341 37.75V31.5H0.416748V27.3333H4.58341V23.1667H0.416748V19H4.58341V0.25H18.1251C21.3195 0.25 24.0279 1.36111 26.2501 3.58333C28.4723 5.80556 29.5834 8.51389 29.5834 11.7083C29.5834 14.9028 28.4723 17.6111 26.2501 19.8333C24.0279 22.0556 21.3195 23.1667 18.1251 23.1667H8.75008V27.3333H17.0834V31.5H8.75008V37.75H4.58341ZM8.75008 19H18.1251C20.139 19 21.8577 18.2882 23.2813 16.8646C24.7049 15.441 25.4167 13.7222 25.4167 11.7083C25.4167 9.69444 24.7049 7.97569 23.2813 6.55208C21.8577 5.12847 20.139 4.41667 18.1251 4.41667H8.75008V19Z" fill="#1C1B1F"/>
</svg>
