<svg width="42" height="42" viewBox="0 0 42 42" fill="none" xmlns="http://www.w3.org/2000/svg">
<path d="M27.7709 6.4165C27.0417 6.4165 26.4254 6.16477 25.922 5.6613C25.4185 5.15782 25.1667 4.5415 25.1667 3.81234C25.1667 3.08317 25.4185 2.46685 25.922 1.96338C26.4254 1.45991 27.0417 1.20817 27.7709 1.20817C28.5001 1.20817 29.1164 1.45991 29.6199 1.96338C30.1233 2.46685 30.3751 3.08317 30.3751 3.81234C30.3751 4.5415 30.1233 5.15782 29.6199 5.6613C29.1164 6.16477 28.5001 6.4165 27.7709 6.4165ZM27.7709 40.7915C27.0417 40.7915 26.4254 40.5398 25.922 40.0363C25.4185 39.5328 25.1667 38.9165 25.1667 38.1873C25.1667 37.4582 25.4185 36.8419 25.922 36.3384C26.4254 35.8349 27.0417 35.5832 27.7709 35.5832C28.5001 35.5832 29.1164 35.8349 29.6199 36.3384C30.1233 36.8419 30.3751 37.4582 30.3751 38.1873C30.3751 38.9165 30.1233 39.5328 29.6199 40.0363C29.1164 40.5398 28.5001 40.7915 27.7709 40.7915ZM36.1043 13.7082C35.3751 13.7082 34.7588 13.4564 34.2553 12.953C33.7518 12.4495 33.5001 11.8332 33.5001 11.104C33.5001 10.3748 33.7518 9.75852 34.2553 9.25505C34.7588 8.75157 35.3751 8.49984 36.1043 8.49984C36.8334 8.49984 37.4497 8.75157 37.9532 9.25505C38.4567 9.75852 38.7084 10.3748 38.7084 11.104C38.7084 11.8332 38.4567 12.4495 37.9532 12.953C37.4497 13.4564 36.8334 13.7082 36.1043 13.7082ZM36.1043 33.4998C35.3751 33.4998 34.7588 33.2481 34.2553 32.7446C33.7518 32.2412 33.5001 31.6248 33.5001 30.8957C33.5001 30.1665 33.7518 29.5502 34.2553 29.0467C34.7588 28.5432 35.3751 28.2915 36.1043 28.2915C36.8334 28.2915 37.4497 28.5432 37.9532 29.0467C38.4567 29.5502 38.7084 30.1665 38.7084 30.8957C38.7084 31.6248 38.4567 32.2412 37.9532 32.7446C37.4497 33.2481 36.8334 33.4998 36.1043 33.4998ZM39.2293 23.604C38.5001 23.604 37.8838 23.3523 37.3803 22.8488C36.8768 22.3453 36.6251 21.729 36.6251 20.9998C36.6251 20.2707 36.8768 19.6544 37.3803 19.1509C37.8838 18.6474 38.5001 18.3957 39.2293 18.3957C39.9584 18.3957 40.5747 18.6474 41.0782 19.1509C41.5817 19.6544 41.8334 20.2707 41.8334 20.9998C41.8334 21.729 41.5817 22.3453 41.0782 22.8488C40.5747 23.3523 39.9584 23.604 39.2293 23.604ZM21.0001 41.8332C18.1181 41.8332 15.4098 41.2863 12.8751 40.1925C10.3404 39.0988 8.1355 37.6144 6.2605 35.7394C4.3855 33.8644 2.90112 31.6596 1.80737 29.1248C0.713623 26.5901 0.166748 23.8818 0.166748 20.9998C0.166748 18.1179 0.713623 15.4096 1.80737 12.8748C2.90112 10.3401 4.3855 8.13525 6.2605 6.26025C8.1355 4.38525 10.3404 2.90088 12.8751 1.80713C15.4098 0.713379 18.1181 0.166504 21.0001 0.166504V4.33317C16.3473 4.33317 12.4063 5.94775 9.17717 9.17692C5.948 12.4061 4.33342 16.3471 4.33342 20.9998C4.33342 25.6526 5.948 29.5936 9.17717 32.8228C12.4063 36.0519 16.3473 37.6665 21.0001 37.6665V41.8332ZM21.0001 25.1665C19.8542 25.1665 18.8733 24.7585 18.0574 23.9425C17.2414 23.1266 16.8334 22.1457 16.8334 20.9998C16.8334 20.8262 16.8421 20.6439 16.8595 20.453C16.8768 20.262 16.9202 20.0797 16.9897 19.9061L12.6667 15.5832L15.5834 12.6665L19.9063 16.9894C20.0452 16.9547 20.4098 16.9026 21.0001 16.8332C22.1459 16.8332 23.1268 17.2412 23.9428 18.0571C24.7588 18.8731 25.1667 19.854 25.1667 20.9998C25.1667 22.1457 24.7588 23.1266 23.9428 23.9425C23.1268 24.7585 22.1459 25.1665 21.0001 25.1665Z" fill="#1C1B1F"/>
</svg>
